<svg width="1024" height="753" viewBox="0 0 1024 753" fill="none" xmlns="http://www.w3.org/2000/svg">
<g clip-path="url(#clip0_122_130)">
<rect width="1024" height="753" fill="#121214"/>
<g opacity="0.2" filter="url(#filter0_f_122_130)">
<ellipse cx="512.5" cy="34" rx="670.5" ry="350" fill="#35875D"/>
</g>
<path d="M33.0349 270C34.5302 270 35.6622 270.63 36.4308 271.891C37.2134 273.138 37.6047 274.953 37.6047 277.336C37.6047 279.719 37.2134 281.541 36.4308 282.802C35.6622 284.063 34.5302 284.693 33.0349 284.693C31.5536 284.693 30.4216 284.063 29.639 282.802C28.8564 281.541 28.4651 279.719 28.4651 277.336C28.4651 274.967 28.8564 273.152 29.639 271.891C30.4216 270.63 31.5536 270 33.0349 270ZM29.9534 277.336C29.9534 279.026 30.1072 280.35 30.4146 281.306L35.0683 272.099C34.5791 271.448 33.9013 271.122 33.0349 271.122C32.0706 271.122 31.316 271.635 30.771 272.66C30.2259 273.672 29.9534 275.23 29.9534 277.336ZM33.0349 283.55C34.0131 283.55 34.7748 283.044 35.3198 282.033C35.8648 281.008 36.1373 279.442 36.1373 277.336C36.1373 275.549 35.9627 274.163 35.6133 273.18L30.9596 282.469C31.4627 283.19 32.1545 283.55 33.0349 283.55Z" fill="url(#paint0_linear_122_130)" fill-opacity="0.6"/>
<path d="M34.2926 307.135H37.3741V308.236H29.3874V307.135H32.9511V295.455L29.5551 297.471L28.9682 296.536L33.1607 293.959H34.2926V307.135Z" fill="url(#paint1_linear_122_130)" fill-opacity="0.6"/>
<path d="M33.0349 317.502C34.5302 317.502 35.6622 318.133 36.4308 319.393C37.2134 320.64 37.6047 322.455 37.6047 324.838C37.6047 327.221 37.2134 329.043 36.4308 330.304C35.6622 331.565 34.5302 332.195 33.0349 332.195C31.5536 332.195 30.4216 331.565 29.639 330.304C28.8564 329.043 28.4651 327.221 28.4651 324.838C28.4651 322.469 28.8564 320.654 29.639 319.393C30.4216 318.133 31.5536 317.502 33.0349 317.502ZM29.9534 324.838C29.9534 326.529 30.1072 327.852 30.4146 328.808L35.0683 319.601C34.5791 318.95 33.9013 318.624 33.0349 318.624C32.0706 318.624 31.316 319.137 30.771 320.162C30.2259 321.174 29.9534 322.732 29.9534 324.838ZM33.0349 331.052C34.0131 331.052 34.7748 330.546 35.3198 329.535C35.8648 328.51 36.1373 326.944 36.1373 324.838C36.1373 323.051 35.9627 321.665 35.6133 320.682L30.9596 329.971C31.4627 330.692 32.1545 331.052 33.0349 331.052Z" fill="url(#paint2_linear_122_130)" fill-opacity="0.6"/>
<path d="M34.2926 354.637H37.3741V355.738H29.3874V354.637H32.9511V342.957L29.5551 344.973L28.9682 344.038L33.1607 341.461H34.2926V354.637Z" fill="url(#paint3_linear_122_130)" fill-opacity="0.6"/>
<path d="M34.2926 378.388H37.3741V379.489H29.3874V378.388H32.9511V366.708L29.5551 368.724L28.9682 367.789L33.1607 365.212H34.2926V378.388Z" fill="url(#paint4_linear_122_130)" fill-opacity="0.6"/>
<path d="M33.0349 388.755C34.5302 388.755 35.6622 389.386 36.4308 390.646C37.2134 391.893 37.6047 393.708 37.6047 396.091C37.6047 398.474 37.2134 400.296 36.4308 401.557C35.6622 402.818 34.5302 403.448 33.0349 403.448C31.5536 403.448 30.4216 402.818 29.639 401.557C28.8564 400.296 28.4651 398.474 28.4651 396.091C28.4651 393.722 28.8564 391.907 29.639 390.646C30.4216 389.386 31.5536 388.755 33.0349 388.755ZM29.9534 396.091C29.9534 397.782 30.1072 399.105 30.4146 400.061L35.0683 390.854C34.5791 390.203 33.9013 389.878 33.0349 389.878C32.0706 389.878 31.316 390.39 30.771 391.415C30.2259 392.427 29.9534 393.985 29.9534 396.091ZM33.0349 402.305C34.0131 402.305 34.7748 401.8 35.3198 400.788C35.8648 399.763 36.1373 398.197 36.1373 396.091C36.1373 394.304 35.9627 392.919 35.6133 391.935L30.9596 401.225C31.4627 401.945 32.1545 402.305 33.0349 402.305Z" fill="url(#paint5_linear_122_130)" fill-opacity="0.6"/>
<path d="M34.2926 425.89H37.3741V426.992H29.3874V425.89H32.9511V414.21L29.5551 416.226L28.9682 415.291L33.1607 412.714H34.2926V425.89Z" fill="url(#paint6_linear_122_130)" fill-opacity="0.6"/>
<path d="M33.0349 436.257C34.5302 436.257 35.6622 436.888 36.4308 438.149C37.2134 439.396 37.6047 441.211 37.6047 443.594C37.6047 445.977 37.2134 447.798 36.4308 449.059C35.6622 450.32 34.5302 450.95 33.0349 450.95C31.5536 450.95 30.4216 450.32 29.639 449.059C28.8564 447.798 28.4651 445.977 28.4651 443.594C28.4651 441.224 28.8564 439.409 29.639 438.149C30.4216 436.888 31.5536 436.257 33.0349 436.257ZM29.9534 443.594C29.9534 445.284 30.1072 446.607 30.4146 447.563L35.0683 438.356C34.5791 437.705 33.9013 437.38 33.0349 437.38C32.0706 437.38 31.316 437.892 30.771 438.918C30.2259 439.929 29.9534 441.488 29.9534 443.594ZM33.0349 449.807C34.0131 449.807 34.7748 449.302 35.3198 448.29C35.8648 447.265 36.1373 445.699 36.1373 443.594C36.1373 441.806 35.9627 440.421 35.6133 439.437L30.9596 448.727C31.4627 449.447 32.1545 449.807 33.0349 449.807Z" fill="url(#paint7_linear_122_130)" fill-opacity="0.6"/>
<path d="M33.0349 460.008C34.5302 460.008 35.6622 460.639 36.4308 461.9C37.2134 463.147 37.6047 464.962 37.6047 467.345C37.6047 469.728 37.2134 471.549 36.4308 472.81C35.6622 474.071 34.5302 474.701 33.0349 474.701C31.5536 474.701 30.4216 474.071 29.639 472.81C28.8564 471.549 28.4651 469.728 28.4651 467.345C28.4651 464.975 28.8564 463.16 29.639 461.9C30.4216 460.639 31.5536 460.008 33.0349 460.008ZM29.9534 467.345C29.9534 469.035 30.1072 470.358 30.4146 471.314L35.0683 462.107C34.5791 461.456 33.9013 461.131 33.0349 461.131C32.0706 461.131 31.316 461.643 30.771 462.669C30.2259 463.68 29.9534 465.239 29.9534 467.345ZM33.0349 473.558C34.0131 473.558 34.7748 473.053 35.3198 472.041C35.8648 471.016 36.1373 469.451 36.1373 467.345C36.1373 465.557 35.9627 464.172 35.6133 463.188L30.9596 472.478C31.4627 473.198 32.1545 473.558 33.0349 473.558Z" fill="url(#paint8_linear_122_130)" fill-opacity="0.6"/>
<path d="M34.2926 497.143H37.3741V498.245H29.3874V497.143H32.9511V485.464L29.5551 487.48L28.9682 486.544L33.1607 483.967H34.2926V497.143Z" fill="url(#paint9_linear_122_130)" fill-opacity="0.6"/>
<path d="M33.0349 507.511C34.5302 507.511 35.6622 508.141 36.4308 509.402C37.2134 510.649 37.6047 512.464 37.6047 514.847C37.6047 517.23 37.2134 519.052 36.4308 520.312C35.6622 521.573 34.5302 522.204 33.0349 522.204C31.5536 522.204 30.4216 521.573 29.639 520.312C28.8564 519.052 28.4651 517.23 28.4651 514.847C28.4651 512.478 28.8564 510.663 29.639 509.402C30.4216 508.141 31.5536 507.511 33.0349 507.511ZM29.9534 514.847C29.9534 516.537 30.1072 517.86 30.4146 518.816L35.0683 509.61C34.5791 508.958 33.9013 508.633 33.0349 508.633C32.0706 508.633 31.316 509.145 30.771 510.171C30.2259 511.182 29.9534 512.741 29.9534 514.847ZM33.0349 521.061C34.0131 521.061 34.7748 520.555 35.3198 519.543C35.8648 518.518 36.1373 516.953 36.1373 514.847C36.1373 513.059 35.9627 511.674 35.6133 510.69L30.9596 519.98C31.4627 520.7 32.1545 521.061 33.0349 521.061Z" fill="url(#paint10_linear_122_130)" fill-opacity="0.6"/>
<path d="M34.2926 544.645H37.3741V545.747H29.3874V544.645H32.9511V532.966L29.5551 534.982L28.9682 534.046L33.1607 531.469H34.2926V544.645Z" fill="url(#paint11_linear_122_130)" fill-opacity="0.6"/>
<path d="M34.2926 568.396H37.3741V569.498H29.3874V568.396H32.9511V556.717L29.5551 558.733L28.9682 557.798L33.1607 555.221H34.2926V568.396Z" fill="url(#paint12_linear_122_130)" fill-opacity="0.6"/>
<path d="M71.9651 317.502C73.4604 317.502 74.5924 318.133 75.361 319.393C76.1436 320.64 76.5349 322.455 76.5349 324.838C76.5349 327.221 76.1436 329.043 75.361 330.304C74.5924 331.565 73.4604 332.195 71.9651 332.195C70.4838 332.195 69.3518 331.565 68.5692 330.304C67.7866 329.043 67.3953 327.221 67.3953 324.838C67.3953 322.469 67.7866 320.654 68.5692 319.393C69.3518 318.133 70.4838 317.502 71.9651 317.502ZM68.8836 324.838C68.8836 326.529 69.0374 327.852 69.3448 328.808L73.9985 319.601C73.5093 318.95 72.8315 318.624 71.9651 318.624C71.0008 318.624 70.2462 319.137 69.7012 320.162C69.1561 321.174 68.8836 322.732 68.8836 324.838ZM71.9651 331.052C72.9433 331.052 73.705 330.546 74.25 329.535C74.795 328.51 75.0675 326.944 75.0675 324.838C75.0675 323.051 74.8928 321.665 74.5435 320.682L69.8898 329.971C70.3929 330.692 71.0847 331.052 71.9651 331.052Z" fill="url(#paint13_linear_122_130)" fill-opacity="0.6"/>
<path d="M73.2228 354.637H76.3043V355.738H68.3176V354.637H71.8812V342.957L68.4853 344.973L67.8984 344.038L72.0909 341.461H73.2228V354.637Z" fill="url(#paint14_linear_122_130)" fill-opacity="0.6"/>
<path d="M71.9651 365.004C73.4604 365.004 74.5924 365.635 75.361 366.895C76.1436 368.142 76.5349 369.957 76.5349 372.34C76.5349 374.723 76.1436 376.545 75.361 377.806C74.5924 379.067 73.4604 379.697 71.9651 379.697C70.4838 379.697 69.3518 379.067 68.5692 377.806C67.7866 376.545 67.3953 374.723 67.3953 372.34C67.3953 369.971 67.7866 368.156 68.5692 366.895C69.3518 365.635 70.4838 365.004 71.9651 365.004ZM68.8836 372.34C68.8836 374.031 69.0374 375.354 69.3448 376.31L73.9985 367.103C73.5093 366.452 72.8315 366.126 71.9651 366.126C71.0008 366.126 70.2462 366.639 69.7012 367.664C69.1561 368.676 68.8836 370.234 68.8836 372.34ZM71.9651 378.554C72.9433 378.554 73.705 378.049 74.25 377.037C74.795 376.012 75.0675 374.446 75.0675 372.34C75.0675 370.553 74.8928 369.168 74.5435 368.184L69.8898 377.474C70.3929 378.194 71.0847 378.554 71.9651 378.554Z" fill="url(#paint15_linear_122_130)" fill-opacity="0.6"/>
<path d="M71.9651 388.755C73.4604 388.755 74.5924 389.386 75.361 390.646C76.1436 391.893 76.5349 393.708 76.5349 396.091C76.5349 398.474 76.1436 400.296 75.361 401.557C74.5924 402.818 73.4604 403.448 71.9651 403.448C70.4838 403.448 69.3518 402.818 68.5692 401.557C67.7866 400.296 67.3953 398.474 67.3953 396.091C67.3953 393.722 67.7866 391.907 68.5692 390.646C69.3518 389.386 70.4838 388.755 71.9651 388.755ZM68.8836 396.091C68.8836 397.782 69.0374 399.105 69.3448 400.061L73.9985 390.854C73.5093 390.203 72.8315 389.878 71.9651 389.878C71.0008 389.878 70.2462 390.39 69.7012 391.415C69.1561 392.427 68.8836 393.985 68.8836 396.091ZM71.9651 402.305C72.9433 402.305 73.705 401.8 74.25 400.788C74.795 399.763 75.0675 398.197 75.0675 396.091C75.0675 394.304 74.8928 392.919 74.5435 391.935L69.8898 401.225C70.3929 401.945 71.0847 402.305 71.9651 402.305Z" fill="url(#paint16_linear_122_130)" fill-opacity="0.6"/>
<path d="M73.2228 425.89H76.3043V426.992H68.3176V425.89H71.8812V414.21L68.4853 416.226L67.8984 415.291L72.0909 412.714H73.2228V425.89Z" fill="url(#paint17_linear_122_130)" fill-opacity="0.6"/>
<path d="M71.9651 436.257C73.4604 436.257 74.5924 436.888 75.361 438.149C76.1436 439.396 76.5349 441.211 76.5349 443.594C76.5349 445.977 76.1436 447.798 75.361 449.059C74.5924 450.32 73.4604 450.95 71.9651 450.95C70.4838 450.95 69.3518 450.32 68.5692 449.059C67.7866 447.798 67.3953 445.977 67.3953 443.594C67.3953 441.224 67.7866 439.409 68.5692 438.149C69.3518 436.888 70.4838 436.257 71.9651 436.257ZM68.8836 443.594C68.8836 445.284 69.0374 446.607 69.3448 447.563L73.9985 438.356C73.5093 437.705 72.8315 437.38 71.9651 437.38C71.0008 437.38 70.2462 437.892 69.7012 438.918C69.1561 439.929 68.8836 441.488 68.8836 443.594ZM71.9651 449.807C72.9433 449.807 73.705 449.302 74.25 448.29C74.795 447.265 75.0675 445.699 75.0675 443.594C75.0675 441.806 74.8928 440.421 74.5435 439.437L69.8898 448.727C70.3929 449.447 71.0847 449.807 71.9651 449.807Z" fill="url(#paint18_linear_122_130)" fill-opacity="0.6"/>
<path d="M73.2228 473.392H76.3043V474.494H68.3176V473.392H71.8812V461.713L68.4853 463.728L67.8984 462.793L72.0909 460.216H73.2228V473.392Z" fill="url(#paint19_linear_122_130)" fill-opacity="0.6"/>
<path d="M71.9651 483.76C73.4604 483.76 74.5924 484.39 75.361 485.651C76.1436 486.898 76.5349 488.713 76.5349 491.096C76.5349 493.479 76.1436 495.301 75.361 496.561C74.5924 497.822 73.4604 498.453 71.9651 498.453C70.4838 498.453 69.3518 497.822 68.5692 496.561C67.7866 495.301 67.3953 493.479 67.3953 491.096C67.3953 488.726 67.7866 486.911 68.5692 485.651C69.3518 484.39 70.4838 483.76 71.9651 483.76ZM68.8836 491.096C68.8836 492.786 69.0374 494.109 69.3448 495.065L73.9985 485.859C73.5093 485.207 72.8315 484.882 71.9651 484.882C71.0008 484.882 70.2462 485.394 69.7012 486.42C69.1561 487.431 68.8836 488.99 68.8836 491.096ZM71.9651 497.31C72.9433 497.31 73.705 496.804 74.25 495.792C74.795 494.767 75.0675 493.202 75.0675 491.096C75.0675 489.308 74.8928 487.923 74.5435 486.939L69.8898 496.229C70.3929 496.949 71.0847 497.31 71.9651 497.31Z" fill="url(#paint20_linear_122_130)" fill-opacity="0.6"/>
<path d="M71.9651 507.511C73.4604 507.511 74.5924 508.141 75.361 509.402C76.1436 510.649 76.5349 512.464 76.5349 514.847C76.5349 517.23 76.1436 519.052 75.361 520.312C74.5924 521.573 73.4604 522.204 71.9651 522.204C70.4838 522.204 69.3518 521.573 68.5692 520.312C67.7866 519.052 67.3953 517.23 67.3953 514.847C67.3953 512.478 67.7866 510.663 68.5692 509.402C69.3518 508.141 70.4838 507.511 71.9651 507.511ZM68.8836 514.847C68.8836 516.537 69.0374 517.86 69.3448 518.816L73.9985 509.61C73.5093 508.958 72.8315 508.633 71.9651 508.633C71.0008 508.633 70.2462 509.145 69.7012 510.171C69.1561 511.182 68.8836 512.741 68.8836 514.847ZM71.9651 521.061C72.9433 521.061 73.705 520.555 74.25 519.543C74.795 518.518 75.0675 516.953 75.0675 514.847C75.0675 513.059 74.8928 511.674 74.5435 510.69L69.8898 519.98C70.3929 520.7 71.0847 521.061 71.9651 521.061Z" fill="url(#paint21_linear_122_130)" fill-opacity="0.6"/>
<path d="M73.2228 544.645H76.3043V545.747H68.3176V544.645H71.8812V532.966L68.4853 534.982L67.8984 534.046L72.0909 531.469H73.2228V544.645Z" fill="url(#paint22_linear_122_130)" fill-opacity="0.6"/>
<path d="M71.9651 555.013C73.4604 555.013 74.5924 555.643 75.361 556.904C76.1436 558.151 76.5349 559.966 76.5349 562.349C76.5349 564.732 76.1436 566.554 75.361 567.815C74.5924 569.075 73.4604 569.706 71.9651 569.706C70.4838 569.706 69.3518 569.075 68.5692 567.815C67.7866 566.554 67.3953 564.732 67.3953 562.349C67.3953 559.98 67.7866 558.165 68.5692 556.904C69.3518 555.643 70.4838 555.013 71.9651 555.013ZM68.8836 562.349C68.8836 564.039 69.0374 565.362 69.3448 566.318L73.9985 557.112C73.5093 556.461 72.8315 556.135 71.9651 556.135C71.0008 556.135 70.2462 556.648 69.7012 557.673C69.1561 558.684 68.8836 560.243 68.8836 562.349ZM71.9651 568.563C72.9433 568.563 73.705 568.057 74.25 567.046C74.795 566.02 75.0675 564.455 75.0675 562.349C75.0675 560.562 74.8928 559.176 74.5435 558.192L69.8898 567.482C70.3929 568.202 71.0847 568.563 71.9651 568.563Z" fill="url(#paint23_linear_122_130)" fill-opacity="0.6"/>
<path d="M73.2228 592.148H76.3043V593.249H68.3176V592.148H71.8812V580.468L68.4853 582.484L67.8984 581.549L72.0909 578.972H73.2228V592.148Z" fill="url(#paint24_linear_122_130)" fill-opacity="0.6"/>
<path d="M73.2228 615.899H76.3043V617H68.3176V615.899H71.8812V604.219L68.4853 606.235L67.8984 605.3L72.0909 602.723H73.2228V615.899Z" fill="url(#paint25_linear_122_130)" fill-opacity="0.6"/>
<path d="M13.5698 341.253C15.0651 341.253 16.1971 341.884 16.9657 343.144C17.7483 344.391 18.1396 346.206 18.1396 348.589C18.1396 350.972 17.7483 352.794 16.9657 354.055C16.1971 355.316 15.0651 355.946 13.5698 355.946C12.0885 355.946 10.9565 355.316 10.1739 354.055C9.3913 352.794 9 350.972 9 348.589C9 346.22 9.3913 344.405 10.1739 343.144C10.9565 341.884 12.0885 341.253 13.5698 341.253ZM10.4883 348.589C10.4883 350.28 10.6421 351.603 10.9495 352.559L15.6032 343.352C15.114 342.701 14.4363 342.375 13.5698 342.375C12.6055 342.375 11.8509 342.888 11.3059 343.913C10.7608 344.925 10.4883 346.483 10.4883 348.589ZM13.5698 354.803C14.5481 354.803 15.3097 354.297 15.8547 353.286C16.3997 352.261 16.6722 350.695 16.6722 348.589C16.6722 346.802 16.4976 345.417 16.1482 344.433L11.4945 353.722C11.9976 354.443 12.6894 354.803 13.5698 354.803Z" fill="url(#paint26_linear_122_130)" fill-opacity="0.6"/>
<path d="M13.5698 365.004C15.0651 365.004 16.1971 365.635 16.9657 366.895C17.7483 368.142 18.1396 369.957 18.1396 372.34C18.1396 374.723 17.7483 376.545 16.9657 377.806C16.1971 379.067 15.0651 379.697 13.5698 379.697C12.0885 379.697 10.9565 379.067 10.1739 377.806C9.3913 376.545 9 374.723 9 372.34C9 369.971 9.3913 368.156 10.1739 366.895C10.9565 365.635 12.0885 365.004 13.5698 365.004ZM10.4883 372.34C10.4883 374.031 10.6421 375.354 10.9495 376.31L15.6032 367.103C15.114 366.452 14.4363 366.126 13.5698 366.126C12.6055 366.126 11.8509 366.639 11.3059 367.664C10.7608 368.676 10.4883 370.234 10.4883 372.34ZM13.5698 378.554C14.5481 378.554 15.3097 378.049 15.8547 377.037C16.3997 376.012 16.6722 374.446 16.6722 372.34C16.6722 370.553 16.4976 369.168 16.1482 368.184L11.4945 377.474C11.9976 378.194 12.6894 378.554 13.5698 378.554Z" fill="url(#paint27_linear_122_130)" fill-opacity="0.6"/>
<path d="M14.8276 402.139H17.909V403.24H9.92235V402.139H13.486V390.459L10.09 392.475L9.5031 391.54L13.6956 388.963H14.8276V402.139Z" fill="url(#paint28_linear_122_130)" fill-opacity="0.6"/>
<path d="M13.5698 412.506C15.0651 412.506 16.1971 413.137 16.9657 414.398C17.7483 415.644 18.1396 417.459 18.1396 419.842C18.1396 422.225 17.7483 424.047 16.9657 425.308C16.1971 426.569 15.0651 427.199 13.5698 427.199C12.0885 427.199 10.9565 426.569 10.1739 425.308C9.3913 424.047 9 422.225 9 419.842C9 417.473 9.3913 415.658 10.1739 414.398C10.9565 413.137 12.0885 412.506 13.5698 412.506ZM10.4883 419.842C10.4883 421.533 10.6421 422.856 10.9495 423.812L15.6032 414.605C15.114 413.954 14.4363 413.629 13.5698 413.629C12.6055 413.629 11.8509 414.141 11.3059 415.166C10.7608 416.178 10.4883 417.737 10.4883 419.842ZM13.5698 426.056C14.5481 426.056 15.3097 425.551 15.8547 424.539C16.3997 423.514 16.6722 421.948 16.6722 419.842C16.6722 418.055 16.4976 416.67 16.1482 415.686L11.4945 424.976C11.9976 425.696 12.6894 426.056 13.5698 426.056Z" fill="url(#paint29_linear_122_130)" fill-opacity="0.6"/>
<path d="M14.8276 449.641H17.909V450.743H9.92235V449.641H13.486V437.962L10.09 439.977L9.5031 439.042L13.6956 436.465H14.8276V449.641Z" fill="url(#paint30_linear_122_130)" fill-opacity="0.6"/>
<path d="M14.8276 473.392H17.909V474.494H9.92235V473.392H13.486V461.713L10.09 463.728L9.5031 462.793L13.6956 460.216H14.8276V473.392Z" fill="url(#paint31_linear_122_130)" fill-opacity="0.6"/>
<path d="M53.7577 307.135H56.8392V308.236H48.8525V307.135H52.4162V295.455L49.0202 297.471L48.4333 296.536L52.6258 293.959H53.7577V307.135Z" fill="url(#paint32_linear_122_130)" fill-opacity="0.6"/>
<path d="M52.5 317.502C53.9953 317.502 55.1273 318.133 55.8959 319.393C56.6785 320.64 57.0698 322.455 57.0698 324.838C57.0698 327.221 56.6785 329.043 55.8959 330.304C55.1273 331.565 53.9953 332.195 52.5 332.195C51.0187 332.195 49.8867 331.565 49.1041 330.304C48.3215 329.043 47.9302 327.221 47.9302 324.838C47.9302 322.469 48.3215 320.654 49.1041 319.393C49.8867 318.133 51.0187 317.502 52.5 317.502ZM49.4185 324.838C49.4185 326.529 49.5723 327.852 49.8797 328.808L54.5334 319.601C54.0442 318.95 53.3664 318.624 52.5 318.624C51.5357 318.624 50.7811 319.137 50.2361 320.162C49.691 321.174 49.4185 322.732 49.4185 324.838ZM52.5 331.052C53.4782 331.052 54.2399 330.546 54.7849 329.535C55.3299 328.51 55.6024 326.944 55.6024 324.838C55.6024 323.051 55.4277 321.665 55.0784 320.682L50.4247 329.971C50.9278 330.692 51.6196 331.052 52.5 331.052Z" fill="url(#paint33_linear_122_130)" fill-opacity="0.6"/>
<path d="M53.7577 354.637H56.8392V355.738H48.8525V354.637H52.4162V342.957L49.0202 344.973L48.4333 344.038L52.6258 341.461H53.7577V354.637Z" fill="url(#paint34_linear_122_130)" fill-opacity="0.6"/>
<path d="M53.7577 378.388H56.8392V379.489H48.8525V378.388H52.4162V366.708L49.0202 368.724L48.4333 367.789L52.6258 365.212H53.7577V378.388Z" fill="url(#paint35_linear_122_130)" fill-opacity="0.6"/>
<path d="M52.5 388.755C53.9953 388.755 55.1273 389.386 55.8959 390.646C56.6785 391.893 57.0698 393.708 57.0698 396.091C57.0698 398.474 56.6785 400.296 55.8959 401.557C55.1273 402.818 53.9953 403.448 52.5 403.448C51.0187 403.448 49.8867 402.818 49.1041 401.557C48.3215 400.296 47.9302 398.474 47.9302 396.091C47.9302 393.722 48.3215 391.907 49.1041 390.646C49.8867 389.386 51.0187 388.755 52.5 388.755ZM49.4185 396.091C49.4185 397.782 49.5723 399.105 49.8797 400.061L54.5334 390.854C54.0442 390.203 53.3664 389.878 52.5 389.878C51.5357 389.878 50.7811 390.39 50.2361 391.415C49.691 392.427 49.4185 393.985 49.4185 396.091ZM52.5 402.305C53.4782 402.305 54.2399 401.8 54.7849 400.788C55.3299 399.763 55.6024 398.197 55.6024 396.091C55.6024 394.304 55.4277 392.919 55.0784 391.935L50.4247 401.225C50.9278 401.945 51.6196 402.305 52.5 402.305Z" fill="url(#paint36_linear_122_130)" fill-opacity="0.6"/>
<path d="M53.7577 425.89H56.8392V426.992H48.8525V425.89H52.4162V414.21L49.0202 416.226L48.4333 415.291L52.6258 412.714H53.7577V425.89Z" fill="url(#paint37_linear_122_130)" fill-opacity="0.6"/>
<path d="M53.7577 449.641H56.8392V450.743H48.8525V449.641H52.4162V437.962L49.0202 439.977L48.4333 439.042L52.6258 436.465H53.7577V449.641Z" fill="url(#paint38_linear_122_130)" fill-opacity="0.6"/>
<path d="M52.5 460.008C53.9953 460.008 55.1273 460.639 55.8959 461.9C56.6785 463.147 57.0698 464.962 57.0698 467.345C57.0698 469.728 56.6785 471.549 55.8959 472.81C55.1273 474.071 53.9953 474.701 52.5 474.701C51.0187 474.701 49.8867 474.071 49.1041 472.81C48.3215 471.549 47.9302 469.728 47.9302 467.345C47.9302 464.975 48.3215 463.16 49.1041 461.9C49.8867 460.639 51.0187 460.008 52.5 460.008ZM49.4185 467.345C49.4185 469.035 49.5723 470.358 49.8797 471.314L54.5334 462.107C54.0442 461.456 53.3664 461.131 52.5 461.131C51.5357 461.131 50.7811 461.643 50.2361 462.669C49.691 463.68 49.4185 465.239 49.4185 467.345ZM52.5 473.558C53.4782 473.558 54.2399 473.053 54.7849 472.041C55.3299 471.016 55.6024 469.451 55.6024 467.345C55.6024 465.557 55.4277 464.172 55.0784 463.188L50.4247 472.478C50.9278 473.198 51.6196 473.558 52.5 473.558Z" fill="url(#paint39_linear_122_130)" fill-opacity="0.6"/>
<path d="M53.7577 497.143H56.8392V498.245H48.8525V497.143H52.4162V485.464L49.0202 487.48L48.4333 486.544L52.6258 483.967H53.7577V497.143Z" fill="url(#paint40_linear_122_130)" fill-opacity="0.6"/>
<path d="M52.5 507.511C53.9953 507.511 55.1273 508.141 55.8959 509.402C56.6785 510.649 57.0698 512.464 57.0698 514.847C57.0698 517.23 56.6785 519.052 55.8959 520.312C55.1273 521.573 53.9953 522.204 52.5 522.204C51.0187 522.204 49.8867 521.573 49.1041 520.312C48.3215 519.052 47.9302 517.23 47.9302 514.847C47.9302 512.478 48.3215 510.663 49.1041 509.402C49.8867 508.141 51.0187 507.511 52.5 507.511ZM49.4185 514.847C49.4185 516.537 49.5723 517.86 49.8797 518.816L54.5334 509.61C54.0442 508.958 53.3664 508.633 52.5 508.633C51.5357 508.633 50.7811 509.145 50.2361 510.171C49.691 511.182 49.4185 512.741 49.4185 514.847ZM52.5 521.061C53.4782 521.061 54.2399 520.555 54.7849 519.543C55.3299 518.518 55.6024 516.953 55.6024 514.847C55.6024 513.059 55.4277 511.674 55.0784 510.69L50.4247 519.98C50.9278 520.7 51.6196 521.061 52.5 521.061Z" fill="url(#paint41_linear_122_130)" fill-opacity="0.6"/>
<path d="M91.4302 293.751C92.9255 293.751 94.0575 294.381 94.8261 295.642C95.6087 296.889 96 298.704 96 301.087C96 303.47 95.6087 305.292 94.8261 306.553C94.0575 307.814 92.9255 308.444 91.4302 308.444C89.9489 308.444 88.8169 307.814 88.0343 306.553C87.2517 305.292 86.8604 303.47 86.8604 301.087C86.8604 298.718 87.2517 296.903 88.0343 295.642C88.8169 294.381 89.9489 293.751 91.4302 293.751ZM88.3487 301.087C88.3487 302.777 88.5024 304.101 88.8099 305.057L93.4636 295.85C92.9744 295.199 92.2966 294.873 91.4302 294.873C90.4659 294.873 89.7113 295.386 89.1663 296.411C88.6212 297.423 88.3487 298.981 88.3487 301.087ZM91.4302 307.301C92.4084 307.301 93.1701 306.795 93.7151 305.784C94.2601 304.759 94.5326 303.193 94.5326 301.087C94.5326 299.3 94.3579 297.914 94.0086 296.931L89.3549 306.22C89.858 306.941 90.5498 307.301 91.4302 307.301Z" fill="url(#paint42_linear_122_130)" fill-opacity="0.6"/>
<path d="M92.6879 330.886H95.7694V331.987H87.7827V330.886H91.3463V319.206L87.9504 321.222L87.3635 320.287L91.556 317.71H92.6879V330.886Z" fill="url(#paint43_linear_122_130)" fill-opacity="0.6"/>
<path d="M92.6879 354.637H95.7694V355.738H87.7827V354.637H91.3463V342.957L87.9504 344.973L87.3635 344.038L91.556 341.461H92.6879V354.637Z" fill="url(#paint44_linear_122_130)" fill-opacity="0.6"/>
<path d="M91.4302 365.004C92.9255 365.004 94.0575 365.635 94.8261 366.895C95.6087 368.142 96 369.957 96 372.34C96 374.723 95.6087 376.545 94.8261 377.806C94.0575 379.067 92.9255 379.697 91.4302 379.697C89.9489 379.697 88.8169 379.067 88.0343 377.806C87.2517 376.545 86.8604 374.723 86.8604 372.34C86.8604 369.971 87.2517 368.156 88.0343 366.895C88.8169 365.635 89.9489 365.004 91.4302 365.004ZM88.3487 372.34C88.3487 374.031 88.5024 375.354 88.8099 376.31L93.4636 367.103C92.9744 366.452 92.2966 366.126 91.4302 366.126C90.4659 366.126 89.7113 366.639 89.1663 367.664C88.6212 368.676 88.3487 370.234 88.3487 372.34ZM91.4302 378.554C92.4084 378.554 93.1701 378.049 93.7151 377.037C94.2601 376.012 94.5326 374.446 94.5326 372.34C94.5326 370.553 94.3579 369.168 94.0086 368.184L89.3549 377.474C89.858 378.194 90.5498 378.554 91.4302 378.554Z" fill="url(#paint45_linear_122_130)" fill-opacity="0.6"/>
<path d="M91.4302 388.755C92.9255 388.755 94.0575 389.386 94.8261 390.646C95.6087 391.893 96 393.708 96 396.091C96 398.474 95.6087 400.296 94.8261 401.557C94.0575 402.818 92.9255 403.448 91.4302 403.448C89.9489 403.448 88.8169 402.818 88.0343 401.557C87.2517 400.296 86.8604 398.474 86.8604 396.091C86.8604 393.722 87.2517 391.907 88.0343 390.646C88.8169 389.386 89.9489 388.755 91.4302 388.755ZM88.3487 396.091C88.3487 397.782 88.5024 399.105 88.8099 400.061L93.4636 390.854C92.9744 390.203 92.2966 389.878 91.4302 389.878C90.4659 389.878 89.7113 390.39 89.1663 391.415C88.6212 392.427 88.3487 393.985 88.3487 396.091ZM91.4302 402.305C92.4084 402.305 93.1701 401.8 93.7151 400.788C94.2601 399.763 94.5326 398.197 94.5326 396.091C94.5326 394.304 94.3579 392.919 94.0086 391.935L89.3549 401.225C89.858 401.945 90.5498 402.305 91.4302 402.305Z" fill="url(#paint46_linear_122_130)" fill-opacity="0.6"/>
<g opacity="0.6">
<path d="M919.93 -30C921.356 -30 922.436 -29.395 923.17 -28.1851C923.916 -26.9885 924.29 -25.2468 924.29 -22.9599C924.29 -20.673 923.916 -18.9246 923.17 -17.7147C922.436 -16.5048 921.356 -15.8998 919.93 -15.8998C918.517 -15.8998 917.437 -16.5048 916.69 -17.7147C915.943 -18.9246 915.57 -20.673 915.57 -22.9599C915.57 -25.2335 915.943 -26.9752 916.69 -28.1851C917.437 -29.395 918.517 -30 919.93 -30ZM916.99 -22.9599C916.99 -21.3378 917.137 -20.068 917.43 -19.1506L921.87 -27.9857C921.403 -28.6106 920.756 -28.923 919.93 -28.923C919.01 -28.923 918.29 -28.4311 917.77 -27.4472C917.25 -26.4766 916.99 -24.9808 916.99 -22.9599ZM919.93 -16.9967C920.863 -16.9967 921.59 -17.482 922.11 -18.4526C922.63 -19.4365 922.89 -20.9389 922.89 -22.9599C922.89 -24.675 922.723 -26.0046 922.39 -26.9486L917.95 -18.0338C918.43 -17.3424 919.09 -16.9967 919.93 -16.9967Z" fill="url(#paint47_linear_122_130)"/>
<path d="M921.13 5.63655H924.07V6.69356H916.45V5.63655H919.85V-5.57181L916.61 -3.63727L916.05 -4.53474L920.05 -7.00776H921.13V5.63655Z" fill="url(#paint48_linear_122_130)"/>
<path d="M919.93 15.5856C921.356 15.5856 922.436 16.1906 923.17 17.4005C923.916 18.5971 924.29 20.3389 924.29 22.6257C924.29 24.9126 923.916 26.661 923.17 27.8709C922.436 29.0808 921.356 29.6858 919.93 29.6858C918.517 29.6858 917.437 29.0808 916.69 27.8709C915.943 26.661 915.57 24.9126 915.57 22.6257C915.57 20.3522 915.943 18.6104 916.69 17.4005C917.437 16.1906 918.517 15.5856 919.93 15.5856ZM916.99 22.6257C916.99 24.2478 917.137 25.5176 917.43 26.435L921.87 17.5999C921.403 16.975 920.756 16.6626 919.93 16.6626C919.01 16.6626 918.29 17.1545 917.77 18.1384C917.25 19.109 916.99 20.6048 916.99 22.6257ZM919.93 28.5889C920.863 28.5889 921.59 28.1036 922.11 27.133C922.63 26.1491 922.89 24.6467 922.89 22.6257C922.89 20.9106 922.723 19.581 922.39 18.637L917.95 27.5518C918.43 28.2432 919.09 28.5889 919.93 28.5889Z" fill="url(#paint49_linear_122_130)"/>
<path d="M921.13 51.2221H924.07V52.2792H916.45V51.2221H919.85V40.0138L916.61 41.9483L916.05 41.0509L920.05 38.5778H921.13V51.2221Z" fill="url(#paint50_linear_122_130)"/>
<path d="M921.13 74.015H924.07V75.072H916.45V74.015H919.85V62.8066L916.61 64.7411L916.05 63.8437L920.05 61.3706H921.13V74.015Z" fill="url(#paint51_linear_122_130)"/>
<path d="M919.93 83.964C921.356 83.964 922.436 84.569 923.17 85.7789C923.916 86.9755 924.29 88.7173 924.29 91.0041C924.29 93.291 923.916 95.0394 923.17 96.2493C922.436 97.4593 921.356 98.0642 919.93 98.0642C918.517 98.0642 917.437 97.4593 916.69 96.2493C915.943 95.0394 915.57 93.291 915.57 91.0041C915.57 88.7306 915.943 86.9888 916.69 85.7789C917.437 84.569 918.517 83.964 919.93 83.964ZM916.99 91.0041C916.99 92.6262 917.137 93.896 917.43 94.8134L921.87 85.9783C921.403 85.3534 920.756 85.041 919.93 85.041C919.01 85.041 918.29 85.5329 917.77 86.5168C917.25 87.4874 916.99 88.9832 916.99 91.0041ZM919.93 96.9673C920.863 96.9673 921.59 96.482 922.11 95.5114C922.63 94.5275 922.89 93.0251 922.89 91.0041C922.89 89.289 922.723 87.9594 922.39 87.0154L917.95 95.9302C918.43 96.6216 919.09 96.9673 919.93 96.9673Z" fill="url(#paint52_linear_122_130)"/>
<path d="M921.13 119.601H924.07V120.658H916.45V119.601H919.85V108.392L916.61 110.327L916.05 109.429L920.05 106.956H921.13V119.601Z" fill="url(#paint53_linear_122_130)"/>
<path d="M919.93 129.55C921.356 129.55 922.436 130.155 923.17 131.365C923.916 132.561 924.29 134.303 924.29 136.59C924.29 138.877 923.916 140.625 923.17 141.835C922.436 143.045 921.356 143.65 919.93 143.65C918.517 143.65 917.437 143.045 916.69 141.835C915.943 140.625 915.57 138.877 915.57 136.59C915.57 134.316 915.943 132.574 916.69 131.365C917.437 130.155 918.517 129.55 919.93 129.55ZM916.99 136.59C916.99 138.212 917.137 139.482 917.43 140.399L921.87 131.564C921.403 130.939 920.756 130.627 919.93 130.627C919.01 130.627 918.29 131.119 917.77 132.102C917.25 133.073 916.99 134.569 916.99 136.59ZM919.93 142.553C920.863 142.553 921.59 142.068 922.11 141.097C922.63 140.113 922.89 138.611 922.89 136.59C922.89 134.875 922.723 133.545 922.39 132.601L917.95 141.516C918.43 142.207 919.09 142.553 919.93 142.553Z" fill="url(#paint54_linear_122_130)"/>
<path d="M919.93 152.342C921.356 152.342 922.436 152.947 923.17 154.157C923.916 155.354 924.29 157.096 924.29 159.383C924.29 161.669 923.916 163.418 923.17 164.628C922.436 165.838 921.356 166.443 919.93 166.443C918.517 166.443 917.437 165.838 916.69 164.628C915.943 163.418 915.57 161.669 915.57 159.383C915.57 157.109 915.943 155.367 916.69 154.157C917.437 152.947 918.517 152.342 919.93 152.342ZM916.99 159.383C916.99 161.005 917.137 162.274 917.43 163.192L921.87 154.357C921.403 153.732 920.756 153.419 919.93 153.419C919.01 153.419 918.29 153.911 917.77 154.895C917.25 155.866 916.99 157.362 916.99 159.383ZM919.93 165.346C920.863 165.346 921.59 164.86 922.11 163.89C922.63 162.906 922.89 161.404 922.89 159.383C922.89 157.667 922.723 156.338 922.39 155.394L917.95 164.309C918.43 165 919.09 165.346 919.93 165.346Z" fill="url(#paint55_linear_122_130)"/>
<path d="M921.13 187.979H924.07V189.036H916.45V187.979H919.85V176.771L916.61 178.705L916.05 177.808L920.05 175.335H921.13V187.979Z" fill="url(#paint56_linear_122_130)"/>
<path d="M919.93 197.928C921.356 197.928 922.436 198.533 923.17 199.743C923.916 200.94 924.29 202.681 924.29 204.968C924.29 207.255 923.916 209.003 923.17 210.213C922.436 211.423 921.356 212.028 919.93 212.028C918.517 212.028 917.437 211.423 916.69 210.213C915.943 209.003 915.57 207.255 915.57 204.968C915.57 202.695 915.943 200.953 916.69 199.743C917.437 198.533 918.517 197.928 919.93 197.928ZM916.99 204.968C916.99 206.59 917.137 207.86 917.43 208.777L921.87 199.942C921.403 199.317 920.756 199.005 919.93 199.005C919.01 199.005 918.29 199.497 917.77 200.481C917.25 201.451 916.99 202.947 916.99 204.968ZM919.93 210.931C920.863 210.931 921.59 210.446 922.11 209.475C922.63 208.492 922.89 206.989 922.89 204.968C922.89 203.253 922.723 201.923 922.39 200.979L917.95 209.894C918.43 210.586 919.09 210.931 919.93 210.931Z" fill="url(#paint57_linear_122_130)"/>
<path d="M921.13 233.565H924.07V234.622H916.45V233.565H919.85V222.356L916.61 224.291L916.05 223.393L920.05 220.92H921.13V233.565Z" fill="url(#paint58_linear_122_130)"/>
<path d="M921.13 256.357H924.07V257.414H916.45V256.357H919.85V245.149L916.61 247.084L916.05 246.186L920.05 243.713H921.13V256.357Z" fill="url(#paint59_linear_122_130)"/>
<path d="M957.07 15.5856C958.497 15.5856 959.577 16.1906 960.31 17.4005C961.057 18.5971 961.43 20.3389 961.43 22.6257C961.43 24.9126 961.057 26.661 960.31 27.8709C959.577 29.0808 958.497 29.6858 957.07 29.6858C955.657 29.6858 954.577 29.0808 953.83 27.8709C953.084 26.661 952.71 24.9126 952.71 22.6257C952.71 20.3522 953.084 18.6104 953.83 17.4005C954.577 16.1906 955.657 15.5856 957.07 15.5856ZM954.13 22.6257C954.13 24.2478 954.277 25.5176 954.57 26.435L959.01 17.5999C958.543 16.975 957.897 16.6626 957.07 16.6626C956.15 16.6626 955.43 17.1545 954.91 18.1384C954.39 19.109 954.13 20.6048 954.13 22.6257ZM957.07 28.5889C958.003 28.5889 958.73 28.1036 959.25 27.133C959.77 26.1491 960.03 24.6467 960.03 22.6257C960.03 20.9106 959.863 19.581 959.53 18.637L955.09 27.5518C955.57 28.2432 956.23 28.5889 957.07 28.5889Z" fill="url(#paint60_linear_122_130)"/>
<path d="M958.27 51.2221H961.21V52.2792H953.59V51.2221H956.99V40.0138L953.75 41.9483L953.19 41.0509L957.19 38.5778H958.27V51.2221Z" fill="url(#paint61_linear_122_130)"/>
<path d="M957.07 61.1712C958.497 61.1712 959.577 61.7762 960.31 62.9861C961.057 64.1827 961.43 65.9245 961.43 68.2113C961.43 70.4982 961.057 72.2466 960.31 73.4565C959.577 74.6664 958.497 75.2714 957.07 75.2714C955.657 75.2714 954.577 74.6664 953.83 73.4565C953.084 72.2466 952.71 70.4982 952.71 68.2113C952.71 65.9378 953.084 64.196 953.83 62.9861C954.577 61.7762 955.657 61.1712 957.07 61.1712ZM954.13 68.2113C954.13 69.8334 954.277 71.1032 954.57 72.0206L959.01 63.1855C958.543 62.5606 957.897 62.2482 957.07 62.2482C956.15 62.2482 955.43 62.7401 954.91 63.724C954.39 64.6946 954.13 66.1904 954.13 68.2113ZM957.07 74.1745C958.003 74.1745 958.73 73.6892 959.25 72.7186C959.77 71.7347 960.03 70.2323 960.03 68.2113C960.03 66.4962 959.863 65.1666 959.53 64.2226L955.09 73.1374C955.57 73.8288 956.23 74.1745 957.07 74.1745Z" fill="url(#paint62_linear_122_130)"/>
<path d="M957.07 83.964C958.497 83.964 959.577 84.569 960.31 85.7789C961.057 86.9755 961.43 88.7173 961.43 91.0041C961.43 93.291 961.057 95.0394 960.31 96.2493C959.577 97.4593 958.497 98.0642 957.07 98.0642C955.657 98.0642 954.577 97.4593 953.83 96.2493C953.084 95.0394 952.71 93.291 952.71 91.0041C952.71 88.7306 953.084 86.9888 953.83 85.7789C954.577 84.569 955.657 83.964 957.07 83.964ZM954.13 91.0041C954.13 92.6262 954.277 93.896 954.57 94.8134L959.01 85.9783C958.543 85.3534 957.897 85.041 957.07 85.041C956.15 85.041 955.43 85.5329 954.91 86.5168C954.39 87.4874 954.13 88.9832 954.13 91.0041ZM957.07 96.9673C958.003 96.9673 958.73 96.482 959.25 95.5114C959.77 94.5275 960.03 93.0251 960.03 91.0041C960.03 89.289 959.863 87.9594 959.53 87.0154L955.09 95.9302C955.57 96.6216 956.23 96.9673 957.07 96.9673Z" fill="url(#paint63_linear_122_130)"/>
<path d="M958.27 119.601H961.21V120.658H953.59V119.601H956.99V108.392L953.75 110.327L953.19 109.429L957.19 106.956H958.27V119.601Z" fill="url(#paint64_linear_122_130)"/>
<path d="M957.07 129.55C958.497 129.55 959.577 130.155 960.31 131.365C961.057 132.561 961.43 134.303 961.43 136.59C961.43 138.877 961.057 140.625 960.31 141.835C959.577 143.045 958.497 143.65 957.07 143.65C955.657 143.65 954.577 143.045 953.83 141.835C953.084 140.625 952.71 138.877 952.71 136.59C952.71 134.316 953.084 132.574 953.83 131.365C954.577 130.155 955.657 129.55 957.07 129.55ZM954.13 136.59C954.13 138.212 954.277 139.482 954.57 140.399L959.01 131.564C958.543 130.939 957.897 130.627 957.07 130.627C956.15 130.627 955.43 131.119 954.91 132.102C954.39 133.073 954.13 134.569 954.13 136.59ZM957.07 142.553C958.003 142.553 958.73 142.068 959.25 141.097C959.77 140.113 960.03 138.611 960.03 136.59C960.03 134.875 959.863 133.545 959.53 132.601L955.09 141.516C955.57 142.207 956.23 142.553 957.07 142.553Z" fill="url(#paint65_linear_122_130)"/>
<path d="M958.27 165.186H961.21V166.243H953.59V165.186H956.99V153.978L953.75 155.912L953.19 155.015L957.19 152.542H958.27V165.186Z" fill="url(#paint66_linear_122_130)"/>
<path d="M957.07 175.135C958.497 175.135 959.577 175.74 960.31 176.95C961.057 178.147 961.43 179.888 961.43 182.175C961.43 184.462 961.057 186.211 960.31 187.421C959.577 188.63 958.497 189.235 957.07 189.235C955.657 189.235 954.577 188.63 953.83 187.421C953.084 186.211 952.71 184.462 952.71 182.175C952.71 179.902 953.084 178.16 953.83 176.95C954.577 175.74 955.657 175.135 957.07 175.135ZM954.13 182.175C954.13 183.797 954.277 185.067 954.57 185.985L959.01 177.15C958.543 176.525 957.897 176.212 957.07 176.212C956.15 176.212 955.43 176.704 954.91 177.688C954.39 178.659 954.13 180.154 954.13 182.175ZM957.07 188.139C958.003 188.139 958.73 187.653 959.25 186.683C959.77 185.699 960.03 184.196 960.03 182.175C960.03 180.46 959.863 179.131 959.53 178.187L955.09 187.101C955.57 187.793 956.23 188.139 957.07 188.139Z" fill="url(#paint67_linear_122_130)"/>
<path d="M957.07 197.928C958.497 197.928 959.577 198.533 960.31 199.743C961.057 200.94 961.43 202.681 961.43 204.968C961.43 207.255 961.057 209.003 960.31 210.213C959.577 211.423 958.497 212.028 957.07 212.028C955.657 212.028 954.577 211.423 953.83 210.213C953.084 209.003 952.71 207.255 952.71 204.968C952.71 202.695 953.084 200.953 953.83 199.743C954.577 198.533 955.657 197.928 957.07 197.928ZM954.13 204.968C954.13 206.59 954.277 207.86 954.57 208.777L959.01 199.942C958.543 199.317 957.897 199.005 957.07 199.005C956.15 199.005 955.43 199.497 954.91 200.481C954.39 201.451 954.13 202.947 954.13 204.968ZM957.07 210.931C958.003 210.931 958.73 210.446 959.25 209.475C959.77 208.492 960.03 206.989 960.03 204.968C960.03 203.253 959.863 201.923 959.53 200.979L955.09 209.894C955.57 210.586 956.23 210.931 957.07 210.931Z" fill="url(#paint68_linear_122_130)"/>
<path d="M958.27 233.565H961.21V234.622H953.59V233.565H956.99V222.356L953.75 224.291L953.19 223.393L957.19 220.92H958.27V233.565Z" fill="url(#paint69_linear_122_130)"/>
<path d="M957.07 243.514C958.497 243.514 959.577 244.119 960.31 245.329C961.057 246.525 961.43 248.267 961.43 250.554C961.43 252.841 961.057 254.589 960.31 255.799C959.577 257.009 958.497 257.614 957.07 257.614C955.657 257.614 954.577 257.009 953.83 255.799C953.084 254.589 952.71 252.841 952.71 250.554C952.71 248.28 953.084 246.538 953.83 245.329C954.577 244.119 955.657 243.514 957.07 243.514ZM954.13 250.554C954.13 252.176 954.277 253.446 954.57 254.363L959.01 245.528C958.543 244.903 957.897 244.591 957.07 244.591C956.15 244.591 955.43 245.083 954.91 246.066C954.39 247.037 954.13 248.533 954.13 250.554ZM957.07 256.517C958.003 256.517 958.73 256.032 959.25 255.061C959.77 254.077 960.03 252.575 960.03 250.554C960.03 248.839 959.863 247.509 959.53 246.565L955.09 255.48C955.57 256.171 956.23 256.517 957.07 256.517Z" fill="url(#paint70_linear_122_130)"/>
<path d="M958.27 279.15H961.21V280.207H953.59V279.15H956.99V267.942L953.75 269.876L953.19 268.979L957.19 266.506H958.27V279.15Z" fill="url(#paint71_linear_122_130)"/>
<path d="M958.27 301.943H961.21V303H953.59V301.943H956.99V290.735L953.75 292.669L953.19 291.772L957.19 289.299H958.27V301.943Z" fill="url(#paint72_linear_122_130)"/>
<path d="M901.36 38.3784C902.786 38.3784 903.866 38.9834 904.599 40.1933C905.346 41.3899 905.719 43.1317 905.719 45.4185C905.719 47.7054 905.346 49.4538 904.599 50.6637C903.866 51.8736 902.786 52.4786 901.36 52.4786C899.946 52.4786 898.867 51.8736 898.12 50.6637C897.373 49.4538 897 47.7054 897 45.4185C897 43.145 897.373 41.4032 898.12 40.1933C898.867 38.9834 899.946 38.3784 901.36 38.3784ZM898.42 45.4185C898.42 47.0406 898.567 48.3104 898.86 49.2278L903.3 40.3927C902.833 39.7678 902.186 39.4554 901.36 39.4554C900.44 39.4554 899.72 39.9473 899.2 40.9312C898.68 41.9018 898.42 43.3976 898.42 45.4185ZM901.36 51.3817C902.293 51.3817 903.02 50.8964 903.54 49.9258C904.06 48.9419 904.319 47.4395 904.319 45.4185C904.319 43.7034 904.153 42.3738 903.82 41.4298L899.38 50.3446C899.86 51.036 900.52 51.3817 901.36 51.3817Z" fill="url(#paint73_linear_122_130)"/>
<path d="M901.36 61.1712C902.786 61.1712 903.866 61.7762 904.599 62.9861C905.346 64.1827 905.719 65.9245 905.719 68.2113C905.719 70.4982 905.346 72.2466 904.599 73.4565C903.866 74.6664 902.786 75.2714 901.36 75.2714C899.946 75.2714 898.867 74.6664 898.12 73.4565C897.373 72.2466 897 70.4982 897 68.2113C897 65.9378 897.373 64.196 898.12 62.9861C898.867 61.7762 899.946 61.1712 901.36 61.1712ZM898.42 68.2113C898.42 69.8334 898.567 71.1032 898.86 72.0206L903.3 63.1855C902.833 62.5606 902.186 62.2482 901.36 62.2482C900.44 62.2482 899.72 62.7401 899.2 63.724C898.68 64.6946 898.42 66.1904 898.42 68.2113ZM901.36 74.1745C902.293 74.1745 903.02 73.6892 903.54 72.7186C904.06 71.7347 904.319 70.2323 904.319 68.2113C904.319 66.4962 904.153 65.1666 903.82 64.2226L899.38 73.1374C899.86 73.8288 900.52 74.1745 901.36 74.1745Z" fill="url(#paint74_linear_122_130)"/>
<path d="M902.56 96.8078H905.499V97.8648H897.88V96.8078H901.28V85.5994L898.04 87.5339L897.48 86.6365L901.48 84.1635H902.56V96.8078Z" fill="url(#paint75_linear_122_130)"/>
<path d="M901.36 106.757C902.786 106.757 903.866 107.362 904.599 108.572C905.346 109.768 905.719 111.51 905.719 113.797C905.719 116.084 905.346 117.832 904.599 119.042C903.866 120.252 902.786 120.857 901.36 120.857C899.946 120.857 898.867 120.252 898.12 119.042C897.373 117.832 897 116.084 897 113.797C897 111.523 897.373 109.782 898.12 108.572C898.867 107.362 899.946 106.757 901.36 106.757ZM898.42 113.797C898.42 115.419 898.567 116.689 898.86 117.606L903.3 108.771C902.833 108.146 902.186 107.834 901.36 107.834C900.44 107.834 899.72 108.326 899.2 109.31C898.68 110.28 898.42 111.776 898.42 113.797ZM901.36 119.76C902.293 119.76 903.02 119.275 903.54 118.304C904.06 117.32 904.319 115.818 904.319 113.797C904.319 112.082 904.153 110.752 903.82 109.808L899.38 118.723C899.86 119.414 900.52 119.76 901.36 119.76Z" fill="url(#paint76_linear_122_130)"/>
<path d="M902.56 142.393H905.499V143.45H897.88V142.393H901.28V131.185L898.04 133.12L897.48 132.222L901.48 129.749H902.56V142.393Z" fill="url(#paint77_linear_122_130)"/>
<path d="M902.56 165.186H905.499V166.243H897.88V165.186H901.28V153.978L898.04 155.912L897.48 155.015L901.48 152.542H902.56V165.186Z" fill="url(#paint78_linear_122_130)"/>
<path d="M939.7 5.63655H942.64V6.69356H935.02V5.63655H938.42V-5.57181L935.18 -3.63727L934.62 -4.53474L938.62 -7.00776H939.7V5.63655Z" fill="url(#paint79_linear_122_130)"/>
<path d="M938.5 15.5856C939.927 15.5856 941.006 16.1906 941.74 17.4005C942.486 18.5971 942.86 20.3389 942.86 22.6257C942.86 24.9126 942.486 26.661 941.74 27.8709C941.006 29.0808 939.927 29.6858 938.5 29.6858C937.087 29.6858 936.007 29.0808 935.26 27.8709C934.514 26.661 934.14 24.9126 934.14 22.6257C934.14 20.3522 934.514 18.6104 935.26 17.4005C936.007 16.1906 937.087 15.5856 938.5 15.5856ZM935.56 22.6257C935.56 24.2478 935.707 25.5176 936 26.435L940.44 17.5999C939.973 16.975 939.327 16.6626 938.5 16.6626C937.58 16.6626 936.86 17.1545 936.34 18.1384C935.82 19.109 935.56 20.6048 935.56 22.6257ZM938.5 28.5889C939.433 28.5889 940.16 28.1036 940.68 27.133C941.2 26.1491 941.46 24.6467 941.46 22.6257C941.46 20.9106 941.293 19.581 940.96 18.637L936.52 27.5518C937 28.2432 937.66 28.5889 938.5 28.5889Z" fill="url(#paint80_linear_122_130)"/>
<path d="M939.7 51.2221H942.64V52.2792H935.02V51.2221H938.42V40.0138L935.18 41.9483L934.62 41.0509L938.62 38.5778H939.7V51.2221Z" fill="url(#paint81_linear_122_130)"/>
<path d="M939.7 74.015H942.64V75.072H935.02V74.015H938.42V62.8066L935.18 64.7411L934.62 63.8437L938.62 61.3706H939.7V74.015Z" fill="url(#paint82_linear_122_130)"/>
<path d="M938.5 83.964C939.927 83.964 941.006 84.569 941.74 85.7789C942.486 86.9755 942.86 88.7173 942.86 91.0041C942.86 93.291 942.486 95.0394 941.74 96.2493C941.006 97.4593 939.927 98.0642 938.5 98.0642C937.087 98.0642 936.007 97.4593 935.26 96.2493C934.514 95.0394 934.14 93.291 934.14 91.0041C934.14 88.7306 934.514 86.9888 935.26 85.7789C936.007 84.569 937.087 83.964 938.5 83.964ZM935.56 91.0041C935.56 92.6262 935.707 93.896 936 94.8134L940.44 85.9783C939.973 85.3534 939.327 85.041 938.5 85.041C937.58 85.041 936.86 85.5329 936.34 86.5168C935.82 87.4874 935.56 88.9832 935.56 91.0041ZM938.5 96.9673C939.433 96.9673 940.16 96.482 940.68 95.5114C941.2 94.5275 941.46 93.0251 941.46 91.0041C941.46 89.289 941.293 87.9594 940.96 87.0154L936.52 95.9302C937 96.6216 937.66 96.9673 938.5 96.9673Z" fill="url(#paint83_linear_122_130)"/>
<path d="M939.7 119.601H942.64V120.658H935.02V119.601H938.42V108.392L935.18 110.327L934.62 109.429L938.62 106.956H939.7V119.601Z" fill="url(#paint84_linear_122_130)"/>
<path d="M939.7 142.393H942.64V143.45H935.02V142.393H938.42V131.185L935.18 133.12L934.62 132.222L938.62 129.749H939.7V142.393Z" fill="url(#paint85_linear_122_130)"/>
<path d="M938.5 152.342C939.927 152.342 941.006 152.947 941.74 154.157C942.486 155.354 942.86 157.096 942.86 159.383C942.86 161.669 942.486 163.418 941.74 164.628C941.006 165.838 939.927 166.443 938.5 166.443C937.087 166.443 936.007 165.838 935.26 164.628C934.514 163.418 934.14 161.669 934.14 159.383C934.14 157.109 934.514 155.367 935.26 154.157C936.007 152.947 937.087 152.342 938.5 152.342ZM935.56 159.383C935.56 161.005 935.707 162.274 936 163.192L940.44 154.357C939.973 153.732 939.327 153.419 938.5 153.419C937.58 153.419 936.86 153.911 936.34 154.895C935.82 155.866 935.56 157.362 935.56 159.383ZM938.5 165.346C939.433 165.346 940.16 164.86 940.68 163.89C941.2 162.906 941.46 161.404 941.46 159.383C941.46 157.667 941.293 156.338 940.96 155.394L936.52 164.309C937 165 937.66 165.346 938.5 165.346Z" fill="url(#paint86_linear_122_130)"/>
<path d="M939.7 187.979H942.64V189.036H935.02V187.979H938.42V176.771L935.18 178.705L934.62 177.808L938.62 175.335H939.7V187.979Z" fill="url(#paint87_linear_122_130)"/>
<path d="M938.5 197.928C939.927 197.928 941.006 198.533 941.74 199.743C942.486 200.94 942.86 202.681 942.86 204.968C942.86 207.255 942.486 209.003 941.74 210.213C941.006 211.423 939.927 212.028 938.5 212.028C937.087 212.028 936.007 211.423 935.26 210.213C934.514 209.003 934.14 207.255 934.14 204.968C934.14 202.695 934.514 200.953 935.26 199.743C936.007 198.533 937.087 197.928 938.5 197.928ZM935.56 204.968C935.56 206.59 935.707 207.86 936 208.777L940.44 199.942C939.973 199.317 939.327 199.005 938.5 199.005C937.58 199.005 936.86 199.497 936.34 200.481C935.82 201.451 935.56 202.947 935.56 204.968ZM938.5 210.931C939.433 210.931 940.16 210.446 940.68 209.475C941.2 208.492 941.46 206.989 941.46 204.968C941.46 203.253 941.293 201.923 940.96 200.979L936.52 209.894C937 210.586 937.66 210.931 938.5 210.931Z" fill="url(#paint88_linear_122_130)"/>
<path d="M975.64 -7.2072C977.067 -7.2072 978.147 -6.60224 978.88 -5.39232C979.627 -4.1957 980 -2.45395 980 -0.167072C980 2.11981 979.627 3.86821 978.88 5.07812C978.147 6.28804 977.067 6.893 975.64 6.893C974.227 6.893 973.147 6.28804 972.401 5.07812C971.654 3.86821 971.281 2.11981 971.281 -0.167072C971.281 -2.44065 971.654 -4.1824 972.401 -5.39232C973.147 -6.60224 974.227 -7.2072 975.64 -7.2072ZM972.7 -0.167072C972.7 1.45502 972.847 2.72477 973.14 3.64218L977.58 -5.19288C977.114 -5.81779 976.467 -6.13024 975.64 -6.13024C974.72 -6.13024 974 -5.63829 973.48 -4.6544C972.96 -3.68381 972.7 -2.18803 972.7 -0.167072ZM975.64 5.7961C976.574 5.7961 977.3 5.3108 977.82 4.34021C978.34 3.35632 978.6 1.85389 978.6 -0.167072C978.6 -1.88223 978.433 -3.21181 978.1 -4.15581L973.66 4.75902C974.14 5.4504 974.8 5.7961 975.64 5.7961Z" fill="url(#paint89_linear_122_130)"/>
<path d="M976.84 28.4293H979.78V29.4864H972.161V28.4293H975.56V17.221L972.321 19.1555L971.761 18.2581L975.76 15.785H976.84V28.4293Z" fill="url(#paint90_linear_122_130)"/>
<path d="M976.84 51.2221H979.78V52.2792H972.161V51.2221H975.56V40.0138L972.321 41.9483L971.761 41.0509L975.76 38.5778H976.84V51.2221Z" fill="url(#paint91_linear_122_130)"/>
<path d="M975.64 61.1712C977.067 61.1712 978.147 61.7762 978.88 62.9861C979.627 64.1827 980 65.9245 980 68.2113C980 70.4982 979.627 72.2466 978.88 73.4565C978.147 74.6664 977.067 75.2714 975.64 75.2714C974.227 75.2714 973.147 74.6664 972.401 73.4565C971.654 72.2466 971.281 70.4982 971.281 68.2113C971.281 65.9378 971.654 64.196 972.401 62.9861C973.147 61.7762 974.227 61.1712 975.64 61.1712ZM972.7 68.2113C972.7 69.8334 972.847 71.1032 973.14 72.0206L977.58 63.1855C977.114 62.5606 976.467 62.2482 975.64 62.2482C974.72 62.2482 974 62.7401 973.48 63.724C972.96 64.6946 972.7 66.1904 972.7 68.2113ZM975.64 74.1745C976.574 74.1745 977.3 73.6892 977.82 72.7186C978.34 71.7347 978.6 70.2323 978.6 68.2113C978.6 66.4962 978.433 65.1666 978.1 64.2226L973.66 73.1374C974.14 73.8288 974.8 74.1745 975.64 74.1745Z" fill="url(#paint92_linear_122_130)"/>
<path d="M975.64 83.964C977.067 83.964 978.147 84.569 978.88 85.7789C979.627 86.9755 980 88.7173 980 91.0041C980 93.291 979.627 95.0394 978.88 96.2493C978.147 97.4593 977.067 98.0642 975.64 98.0642C974.227 98.0642 973.147 97.4593 972.401 96.2493C971.654 95.0394 971.281 93.291 971.281 91.0041C971.281 88.7306 971.654 86.9888 972.401 85.7789C973.147 84.569 974.227 83.964 975.64 83.964ZM972.7 91.0041C972.7 92.6262 972.847 93.896 973.14 94.8134L977.58 85.9783C977.114 85.3534 976.467 85.041 975.64 85.041C974.72 85.041 974 85.5329 973.48 86.5168C972.96 87.4874 972.7 88.9832 972.7 91.0041ZM975.64 96.9673C976.574 96.9673 977.3 96.482 977.82 95.5114C978.34 94.5275 978.6 93.0251 978.6 91.0041C978.6 89.289 978.433 87.9594 978.1 87.0154L973.66 95.9302C974.14 96.6216 974.8 96.9673 975.64 96.9673Z" fill="url(#paint93_linear_122_130)"/>
</g>
</g>
<defs>
<filter id="filter0_f_122_130" x="-558.19" y="-716.19" width="2141.38" height="1500.38" filterUnits="userSpaceOnUse" color-interpolation-filters="sRGB">
<feFlood flood-opacity="0" result="BackgroundImageFix"/>
<feBlend mode="normal" in="SourceGraphic" in2="BackgroundImageFix" result="shape"/>
<feGaussianBlur stdDeviation="200.095" result="effect1_foregroundBlur_122_130"/>
</filter>
<linearGradient id="paint0_linear_122_130" x1="52.5" y1="270" x2="52.5" y2="581.381" gradientUnits="userSpaceOnUse">
<stop stop-color="#F7DD43"/>
<stop offset="1" stop-color="#F7DD43" stop-opacity="0"/>
</linearGradient>
<linearGradient id="paint1_linear_122_130" x1="52.5" y1="270" x2="52.5" y2="581.381" gradientUnits="userSpaceOnUse">
<stop stop-color="#F7DD43"/>
<stop offset="1" stop-color="#F7DD43" stop-opacity="0"/>
</linearGradient>
<linearGradient id="paint2_linear_122_130" x1="52.5" y1="270" x2="52.5" y2="581.381" gradientUnits="userSpaceOnUse">
<stop stop-color="#F7DD43"/>
<stop offset="1" stop-color="#F7DD43" stop-opacity="0"/>
</linearGradient>
<linearGradient id="paint3_linear_122_130" x1="52.5" y1="270" x2="52.5" y2="581.381" gradientUnits="userSpaceOnUse">
<stop stop-color="#F7DD43"/>
<stop offset="1" stop-color="#F7DD43" stop-opacity="0"/>
</linearGradient>
<linearGradient id="paint4_linear_122_130" x1="52.5" y1="270" x2="52.5" y2="581.381" gradientUnits="userSpaceOnUse">
<stop stop-color="#F7DD43"/>
<stop offset="1" stop-color="#F7DD43" stop-opacity="0"/>
</linearGradient>
<linearGradient id="paint5_linear_122_130" x1="52.5" y1="270" x2="52.5" y2="581.381" gradientUnits="userSpaceOnUse">
<stop stop-color="#F7DD43"/>
<stop offset="1" stop-color="#F7DD43" stop-opacity="0"/>
</linearGradient>
<linearGradient id="paint6_linear_122_130" x1="52.5" y1="270" x2="52.5" y2="581.381" gradientUnits="userSpaceOnUse">
<stop stop-color="#F7DD43"/>
<stop offset="1" stop-color="#F7DD43" stop-opacity="0"/>
</linearGradient>
<linearGradient id="paint7_linear_122_130" x1="52.5" y1="270" x2="52.5" y2="581.381" gradientUnits="userSpaceOnUse">
<stop stop-color="#F7DD43"/>
<stop offset="1" stop-color="#F7DD43" stop-opacity="0"/>
</linearGradient>
<linearGradient id="paint8_linear_122_130" x1="52.5" y1="270" x2="52.5" y2="581.381" gradientUnits="userSpaceOnUse">
<stop stop-color="#F7DD43"/>
<stop offset="1" stop-color="#F7DD43" stop-opacity="0"/>
</linearGradient>
<linearGradient id="paint9_linear_122_130" x1="52.5" y1="270" x2="52.5" y2="581.381" gradientUnits="userSpaceOnUse">
<stop stop-color="#F7DD43"/>
<stop offset="1" stop-color="#F7DD43" stop-opacity="0"/>
</linearGradient>
<linearGradient id="paint10_linear_122_130" x1="52.5" y1="270" x2="52.5" y2="581.381" gradientUnits="userSpaceOnUse">
<stop stop-color="#F7DD43"/>
<stop offset="1" stop-color="#F7DD43" stop-opacity="0"/>
</linearGradient>
<linearGradient id="paint11_linear_122_130" x1="52.5" y1="270" x2="52.5" y2="581.381" gradientUnits="userSpaceOnUse">
<stop stop-color="#F7DD43"/>
<stop offset="1" stop-color="#F7DD43" stop-opacity="0"/>
</linearGradient>
<linearGradient id="paint12_linear_122_130" x1="52.5" y1="270" x2="52.5" y2="581.381" gradientUnits="userSpaceOnUse">
<stop stop-color="#F7DD43"/>
<stop offset="1" stop-color="#F7DD43" stop-opacity="0"/>
</linearGradient>
<linearGradient id="paint13_linear_122_130" x1="52.5" y1="270" x2="52.5" y2="581.381" gradientUnits="userSpaceOnUse">
<stop stop-color="#F7DD43"/>
<stop offset="1" stop-color="#F7DD43" stop-opacity="0"/>
</linearGradient>
<linearGradient id="paint14_linear_122_130" x1="52.5" y1="270" x2="52.5" y2="581.381" gradientUnits="userSpaceOnUse">
<stop stop-color="#F7DD43"/>
<stop offset="1" stop-color="#F7DD43" stop-opacity="0"/>
</linearGradient>
<linearGradient id="paint15_linear_122_130" x1="52.5" y1="270" x2="52.5" y2="581.381" gradientUnits="userSpaceOnUse">
<stop stop-color="#F7DD43"/>
<stop offset="1" stop-color="#F7DD43" stop-opacity="0"/>
</linearGradient>
<linearGradient id="paint16_linear_122_130" x1="52.5" y1="270" x2="52.5" y2="581.381" gradientUnits="userSpaceOnUse">
<stop stop-color="#F7DD43"/>
<stop offset="1" stop-color="#F7DD43" stop-opacity="0"/>
</linearGradient>
<linearGradient id="paint17_linear_122_130" x1="52.5" y1="270" x2="52.5" y2="581.381" gradientUnits="userSpaceOnUse">
<stop stop-color="#F7DD43"/>
<stop offset="1" stop-color="#F7DD43" stop-opacity="0"/>
</linearGradient>
<linearGradient id="paint18_linear_122_130" x1="52.5" y1="270" x2="52.5" y2="581.381" gradientUnits="userSpaceOnUse">
<stop stop-color="#F7DD43"/>
<stop offset="1" stop-color="#F7DD43" stop-opacity="0"/>
</linearGradient>
<linearGradient id="paint19_linear_122_130" x1="52.5" y1="270" x2="52.5" y2="581.381" gradientUnits="userSpaceOnUse">
<stop stop-color="#F7DD43"/>
<stop offset="1" stop-color="#F7DD43" stop-opacity="0"/>
</linearGradient>
<linearGradient id="paint20_linear_122_130" x1="52.5" y1="270" x2="52.5" y2="581.381" gradientUnits="userSpaceOnUse">
<stop stop-color="#F7DD43"/>
<stop offset="1" stop-color="#F7DD43" stop-opacity="0"/>
</linearGradient>
<linearGradient id="paint21_linear_122_130" x1="52.5" y1="270" x2="52.5" y2="581.381" gradientUnits="userSpaceOnUse">
<stop stop-color="#F7DD43"/>
<stop offset="1" stop-color="#F7DD43" stop-opacity="0"/>
</linearGradient>
<linearGradient id="paint22_linear_122_130" x1="52.5" y1="270" x2="52.5" y2="581.381" gradientUnits="userSpaceOnUse">
<stop stop-color="#F7DD43"/>
<stop offset="1" stop-color="#F7DD43" stop-opacity="0"/>
</linearGradient>
<linearGradient id="paint23_linear_122_130" x1="52.5" y1="270" x2="52.5" y2="581.381" gradientUnits="userSpaceOnUse">
<stop stop-color="#F7DD43"/>
<stop offset="1" stop-color="#F7DD43" stop-opacity="0"/>
</linearGradient>
<linearGradient id="paint24_linear_122_130" x1="52.5" y1="270" x2="52.5" y2="581.381" gradientUnits="userSpaceOnUse">
<stop stop-color="#F7DD43"/>
<stop offset="1" stop-color="#F7DD43" stop-opacity="0"/>
</linearGradient>
<linearGradient id="paint25_linear_122_130" x1="52.5" y1="270" x2="52.5" y2="581.381" gradientUnits="userSpaceOnUse">
<stop stop-color="#F7DD43"/>
<stop offset="1" stop-color="#F7DD43" stop-opacity="0"/>
</linearGradient>
<linearGradient id="paint26_linear_122_130" x1="52.5" y1="270" x2="52.5" y2="581.381" gradientUnits="userSpaceOnUse">
<stop stop-color="#F7DD43"/>
<stop offset="1" stop-color="#F7DD43" stop-opacity="0"/>
</linearGradient>
<linearGradient id="paint27_linear_122_130" x1="52.5" y1="270" x2="52.5" y2="581.381" gradientUnits="userSpaceOnUse">
<stop stop-color="#F7DD43"/>
<stop offset="1" stop-color="#F7DD43" stop-opacity="0"/>
</linearGradient>
<linearGradient id="paint28_linear_122_130" x1="52.5" y1="270" x2="52.5" y2="581.381" gradientUnits="userSpaceOnUse">
<stop stop-color="#F7DD43"/>
<stop offset="1" stop-color="#F7DD43" stop-opacity="0"/>
</linearGradient>
<linearGradient id="paint29_linear_122_130" x1="52.5" y1="270" x2="52.5" y2="581.381" gradientUnits="userSpaceOnUse">
<stop stop-color="#F7DD43"/>
<stop offset="1" stop-color="#F7DD43" stop-opacity="0"/>
</linearGradient>
<linearGradient id="paint30_linear_122_130" x1="52.5" y1="270" x2="52.5" y2="581.381" gradientUnits="userSpaceOnUse">
<stop stop-color="#F7DD43"/>
<stop offset="1" stop-color="#F7DD43" stop-opacity="0"/>
</linearGradient>
<linearGradient id="paint31_linear_122_130" x1="52.5" y1="270" x2="52.5" y2="581.381" gradientUnits="userSpaceOnUse">
<stop stop-color="#F7DD43"/>
<stop offset="1" stop-color="#F7DD43" stop-opacity="0"/>
</linearGradient>
<linearGradient id="paint32_linear_122_130" x1="52.5" y1="270" x2="52.5" y2="581.381" gradientUnits="userSpaceOnUse">
<stop stop-color="#F7DD43"/>
<stop offset="1" stop-color="#F7DD43" stop-opacity="0"/>
</linearGradient>
<linearGradient id="paint33_linear_122_130" x1="52.5" y1="270" x2="52.5" y2="581.381" gradientUnits="userSpaceOnUse">
<stop stop-color="#F7DD43"/>
<stop offset="1" stop-color="#F7DD43" stop-opacity="0"/>
</linearGradient>
<linearGradient id="paint34_linear_122_130" x1="52.5" y1="270" x2="52.5" y2="581.381" gradientUnits="userSpaceOnUse">
<stop stop-color="#F7DD43"/>
<stop offset="1" stop-color="#F7DD43" stop-opacity="0"/>
</linearGradient>
<linearGradient id="paint35_linear_122_130" x1="52.5" y1="270" x2="52.5" y2="581.381" gradientUnits="userSpaceOnUse">
<stop stop-color="#F7DD43"/>
<stop offset="1" stop-color="#F7DD43" stop-opacity="0"/>
</linearGradient>
<linearGradient id="paint36_linear_122_130" x1="52.5" y1="270" x2="52.5" y2="581.381" gradientUnits="userSpaceOnUse">
<stop stop-color="#F7DD43"/>
<stop offset="1" stop-color="#F7DD43" stop-opacity="0"/>
</linearGradient>
<linearGradient id="paint37_linear_122_130" x1="52.5" y1="270" x2="52.5" y2="581.381" gradientUnits="userSpaceOnUse">
<stop stop-color="#F7DD43"/>
<stop offset="1" stop-color="#F7DD43" stop-opacity="0"/>
</linearGradient>
<linearGradient id="paint38_linear_122_130" x1="52.5" y1="270" x2="52.5" y2="581.381" gradientUnits="userSpaceOnUse">
<stop stop-color="#F7DD43"/>
<stop offset="1" stop-color="#F7DD43" stop-opacity="0"/>
</linearGradient>
<linearGradient id="paint39_linear_122_130" x1="52.5" y1="270" x2="52.5" y2="581.381" gradientUnits="userSpaceOnUse">
<stop stop-color="#F7DD43"/>
<stop offset="1" stop-color="#F7DD43" stop-opacity="0"/>
</linearGradient>
<linearGradient id="paint40_linear_122_130" x1="52.5" y1="270" x2="52.5" y2="581.381" gradientUnits="userSpaceOnUse">
<stop stop-color="#F7DD43"/>
<stop offset="1" stop-color="#F7DD43" stop-opacity="0"/>
</linearGradient>
<linearGradient id="paint41_linear_122_130" x1="52.5" y1="270" x2="52.5" y2="581.381" gradientUnits="userSpaceOnUse">
<stop stop-color="#F7DD43"/>
<stop offset="1" stop-color="#F7DD43" stop-opacity="0"/>
</linearGradient>
<linearGradient id="paint42_linear_122_130" x1="52.5" y1="270" x2="52.5" y2="581.381" gradientUnits="userSpaceOnUse">
<stop stop-color="#F7DD43"/>
<stop offset="1" stop-color="#F7DD43" stop-opacity="0"/>
</linearGradient>
<linearGradient id="paint43_linear_122_130" x1="52.5" y1="270" x2="52.5" y2="581.381" gradientUnits="userSpaceOnUse">
<stop stop-color="#F7DD43"/>
<stop offset="1" stop-color="#F7DD43" stop-opacity="0"/>
</linearGradient>
<linearGradient id="paint44_linear_122_130" x1="52.5" y1="270" x2="52.5" y2="581.381" gradientUnits="userSpaceOnUse">
<stop stop-color="#F7DD43"/>
<stop offset="1" stop-color="#F7DD43" stop-opacity="0"/>
</linearGradient>
<linearGradient id="paint45_linear_122_130" x1="52.5" y1="270" x2="52.5" y2="581.381" gradientUnits="userSpaceOnUse">
<stop stop-color="#F7DD43"/>
<stop offset="1" stop-color="#F7DD43" stop-opacity="0"/>
</linearGradient>
<linearGradient id="paint46_linear_122_130" x1="52.5" y1="270" x2="52.5" y2="581.381" gradientUnits="userSpaceOnUse">
<stop stop-color="#F7DD43"/>
<stop offset="1" stop-color="#F7DD43" stop-opacity="0"/>
</linearGradient>
<linearGradient id="paint47_linear_122_130" x1="938.5" y1="-30" x2="938.5" y2="268.818" gradientUnits="userSpaceOnUse">
<stop stop-color="#F7DD43"/>
<stop offset="1" stop-color="#F7DD43" stop-opacity="0"/>
</linearGradient>
<linearGradient id="paint48_linear_122_130" x1="938.5" y1="-30" x2="938.5" y2="268.818" gradientUnits="userSpaceOnUse">
<stop stop-color="#F7DD43"/>
<stop offset="1" stop-color="#F7DD43" stop-opacity="0"/>
</linearGradient>
<linearGradient id="paint49_linear_122_130" x1="938.5" y1="-30" x2="938.5" y2="268.818" gradientUnits="userSpaceOnUse">
<stop stop-color="#F7DD43"/>
<stop offset="1" stop-color="#F7DD43" stop-opacity="0"/>
</linearGradient>
<linearGradient id="paint50_linear_122_130" x1="938.5" y1="-30" x2="938.5" y2="268.818" gradientUnits="userSpaceOnUse">
<stop stop-color="#F7DD43"/>
<stop offset="1" stop-color="#F7DD43" stop-opacity="0"/>
</linearGradient>
<linearGradient id="paint51_linear_122_130" x1="938.5" y1="-30" x2="938.5" y2="268.818" gradientUnits="userSpaceOnUse">
<stop stop-color="#F7DD43"/>
<stop offset="1" stop-color="#F7DD43" stop-opacity="0"/>
</linearGradient>
<linearGradient id="paint52_linear_122_130" x1="938.5" y1="-30" x2="938.5" y2="268.818" gradientUnits="userSpaceOnUse">
<stop stop-color="#F7DD43"/>
<stop offset="1" stop-color="#F7DD43" stop-opacity="0"/>
</linearGradient>
<linearGradient id="paint53_linear_122_130" x1="938.5" y1="-30" x2="938.5" y2="268.818" gradientUnits="userSpaceOnUse">
<stop stop-color="#F7DD43"/>
<stop offset="1" stop-color="#F7DD43" stop-opacity="0"/>
</linearGradient>
<linearGradient id="paint54_linear_122_130" x1="938.5" y1="-30" x2="938.5" y2="268.818" gradientUnits="userSpaceOnUse">
<stop stop-color="#F7DD43"/>
<stop offset="1" stop-color="#F7DD43" stop-opacity="0"/>
</linearGradient>
<linearGradient id="paint55_linear_122_130" x1="938.5" y1="-30" x2="938.5" y2="268.818" gradientUnits="userSpaceOnUse">
<stop stop-color="#F7DD43"/>
<stop offset="1" stop-color="#F7DD43" stop-opacity="0"/>
</linearGradient>
<linearGradient id="paint56_linear_122_130" x1="938.5" y1="-30" x2="938.5" y2="268.818" gradientUnits="userSpaceOnUse">
<stop stop-color="#F7DD43"/>
<stop offset="1" stop-color="#F7DD43" stop-opacity="0"/>
</linearGradient>
<linearGradient id="paint57_linear_122_130" x1="938.5" y1="-30" x2="938.5" y2="268.818" gradientUnits="userSpaceOnUse">
<stop stop-color="#F7DD43"/>
<stop offset="1" stop-color="#F7DD43" stop-opacity="0"/>
</linearGradient>
<linearGradient id="paint58_linear_122_130" x1="938.5" y1="-30" x2="938.5" y2="268.818" gradientUnits="userSpaceOnUse">
<stop stop-color="#F7DD43"/>
<stop offset="1" stop-color="#F7DD43" stop-opacity="0"/>
</linearGradient>
<linearGradient id="paint59_linear_122_130" x1="938.5" y1="-30" x2="938.5" y2="268.818" gradientUnits="userSpaceOnUse">
<stop stop-color="#F7DD43"/>
<stop offset="1" stop-color="#F7DD43" stop-opacity="0"/>
</linearGradient>
<linearGradient id="paint60_linear_122_130" x1="938.5" y1="-30" x2="938.5" y2="268.818" gradientUnits="userSpaceOnUse">
<stop stop-color="#F7DD43"/>
<stop offset="1" stop-color="#F7DD43" stop-opacity="0"/>
</linearGradient>
<linearGradient id="paint61_linear_122_130" x1="938.5" y1="-30" x2="938.5" y2="268.818" gradientUnits="userSpaceOnUse">
<stop stop-color="#F7DD43"/>
<stop offset="1" stop-color="#F7DD43" stop-opacity="0"/>
</linearGradient>
<linearGradient id="paint62_linear_122_130" x1="938.5" y1="-30" x2="938.5" y2="268.818" gradientUnits="userSpaceOnUse">
<stop stop-color="#F7DD43"/>
<stop offset="1" stop-color="#F7DD43" stop-opacity="0"/>
</linearGradient>
<linearGradient id="paint63_linear_122_130" x1="938.5" y1="-30" x2="938.5" y2="268.818" gradientUnits="userSpaceOnUse">
<stop stop-color="#F7DD43"/>
<stop offset="1" stop-color="#F7DD43" stop-opacity="0"/>
</linearGradient>
<linearGradient id="paint64_linear_122_130" x1="938.5" y1="-30" x2="938.5" y2="268.818" gradientUnits="userSpaceOnUse">
<stop stop-color="#F7DD43"/>
<stop offset="1" stop-color="#F7DD43" stop-opacity="0"/>
</linearGradient>
<linearGradient id="paint65_linear_122_130" x1="938.5" y1="-30" x2="938.5" y2="268.818" gradientUnits="userSpaceOnUse">
<stop stop-color="#F7DD43"/>
<stop offset="1" stop-color="#F7DD43" stop-opacity="0"/>
</linearGradient>
<linearGradient id="paint66_linear_122_130" x1="938.5" y1="-30" x2="938.5" y2="268.818" gradientUnits="userSpaceOnUse">
<stop stop-color="#F7DD43"/>
<stop offset="1" stop-color="#F7DD43" stop-opacity="0"/>
</linearGradient>
<linearGradient id="paint67_linear_122_130" x1="938.5" y1="-30" x2="938.5" y2="268.818" gradientUnits="userSpaceOnUse">
<stop stop-color="#F7DD43"/>
<stop offset="1" stop-color="#F7DD43" stop-opacity="0"/>
</linearGradient>
<linearGradient id="paint68_linear_122_130" x1="938.5" y1="-30" x2="938.5" y2="268.818" gradientUnits="userSpaceOnUse">
<stop stop-color="#F7DD43"/>
<stop offset="1" stop-color="#F7DD43" stop-opacity="0"/>
</linearGradient>
<linearGradient id="paint69_linear_122_130" x1="938.5" y1="-30" x2="938.5" y2="268.818" gradientUnits="userSpaceOnUse">
<stop stop-color="#F7DD43"/>
<stop offset="1" stop-color="#F7DD43" stop-opacity="0"/>
</linearGradient>
<linearGradient id="paint70_linear_122_130" x1="938.5" y1="-30" x2="938.5" y2="268.818" gradientUnits="userSpaceOnUse">
<stop stop-color="#F7DD43"/>
<stop offset="1" stop-color="#F7DD43" stop-opacity="0"/>
</linearGradient>
<linearGradient id="paint71_linear_122_130" x1="938.5" y1="-30" x2="938.5" y2="268.818" gradientUnits="userSpaceOnUse">
<stop stop-color="#F7DD43"/>
<stop offset="1" stop-color="#F7DD43" stop-opacity="0"/>
</linearGradient>
<linearGradient id="paint72_linear_122_130" x1="938.5" y1="-30" x2="938.5" y2="268.818" gradientUnits="userSpaceOnUse">
<stop stop-color="#F7DD43"/>
<stop offset="1" stop-color="#F7DD43" stop-opacity="0"/>
</linearGradient>
<linearGradient id="paint73_linear_122_130" x1="938.5" y1="-30" x2="938.5" y2="268.818" gradientUnits="userSpaceOnUse">
<stop stop-color="#F7DD43"/>
<stop offset="1" stop-color="#F7DD43" stop-opacity="0"/>
</linearGradient>
<linearGradient id="paint74_linear_122_130" x1="938.5" y1="-30" x2="938.5" y2="268.818" gradientUnits="userSpaceOnUse">
<stop stop-color="#F7DD43"/>
<stop offset="1" stop-color="#F7DD43" stop-opacity="0"/>
</linearGradient>
<linearGradient id="paint75_linear_122_130" x1="938.5" y1="-30" x2="938.5" y2="268.818" gradientUnits="userSpaceOnUse">
<stop stop-color="#F7DD43"/>
<stop offset="1" stop-color="#F7DD43" stop-opacity="0"/>
</linearGradient>
<linearGradient id="paint76_linear_122_130" x1="938.5" y1="-30" x2="938.5" y2="268.818" gradientUnits="userSpaceOnUse">
<stop stop-color="#F7DD43"/>
<stop offset="1" stop-color="#F7DD43" stop-opacity="0"/>
</linearGradient>
<linearGradient id="paint77_linear_122_130" x1="938.5" y1="-30" x2="938.5" y2="268.818" gradientUnits="userSpaceOnUse">
<stop stop-color="#F7DD43"/>
<stop offset="1" stop-color="#F7DD43" stop-opacity="0"/>
</linearGradient>
<linearGradient id="paint78_linear_122_130" x1="938.5" y1="-30" x2="938.5" y2="268.818" gradientUnits="userSpaceOnUse">
<stop stop-color="#F7DD43"/>
<stop offset="1" stop-color="#F7DD43" stop-opacity="0"/>
</linearGradient>
<linearGradient id="paint79_linear_122_130" x1="938.5" y1="-30" x2="938.5" y2="268.818" gradientUnits="userSpaceOnUse">
<stop stop-color="#F7DD43"/>
<stop offset="1" stop-color="#F7DD43" stop-opacity="0"/>
</linearGradient>
<linearGradient id="paint80_linear_122_130" x1="938.5" y1="-30" x2="938.5" y2="268.818" gradientUnits="userSpaceOnUse">
<stop stop-color="#F7DD43"/>
<stop offset="1" stop-color="#F7DD43" stop-opacity="0"/>
</linearGradient>
<linearGradient id="paint81_linear_122_130" x1="938.5" y1="-30" x2="938.5" y2="268.818" gradientUnits="userSpaceOnUse">
<stop stop-color="#F7DD43"/>
<stop offset="1" stop-color="#F7DD43" stop-opacity="0"/>
</linearGradient>
<linearGradient id="paint82_linear_122_130" x1="938.5" y1="-30" x2="938.5" y2="268.818" gradientUnits="userSpaceOnUse">
<stop stop-color="#F7DD43"/>
<stop offset="1" stop-color="#F7DD43" stop-opacity="0"/>
</linearGradient>
<linearGradient id="paint83_linear_122_130" x1="938.5" y1="-30" x2="938.5" y2="268.818" gradientUnits="userSpaceOnUse">
<stop stop-color="#F7DD43"/>
<stop offset="1" stop-color="#F7DD43" stop-opacity="0"/>
</linearGradient>
<linearGradient id="paint84_linear_122_130" x1="938.5" y1="-30" x2="938.5" y2="268.818" gradientUnits="userSpaceOnUse">
<stop stop-color="#F7DD43"/>
<stop offset="1" stop-color="#F7DD43" stop-opacity="0"/>
</linearGradient>
<linearGradient id="paint85_linear_122_130" x1="938.5" y1="-30" x2="938.5" y2="268.818" gradientUnits="userSpaceOnUse">
<stop stop-color="#F7DD43"/>
<stop offset="1" stop-color="#F7DD43" stop-opacity="0"/>
</linearGradient>
<linearGradient id="paint86_linear_122_130" x1="938.5" y1="-30" x2="938.5" y2="268.818" gradientUnits="userSpaceOnUse">
<stop stop-color="#F7DD43"/>
<stop offset="1" stop-color="#F7DD43" stop-opacity="0"/>
</linearGradient>
<linearGradient id="paint87_linear_122_130" x1="938.5" y1="-30" x2="938.5" y2="268.818" gradientUnits="userSpaceOnUse">
<stop stop-color="#F7DD43"/>
<stop offset="1" stop-color="#F7DD43" stop-opacity="0"/>
</linearGradient>
<linearGradient id="paint88_linear_122_130" x1="938.5" y1="-30" x2="938.5" y2="268.818" gradientUnits="userSpaceOnUse">
<stop stop-color="#F7DD43"/>
<stop offset="1" stop-color="#F7DD43" stop-opacity="0"/>
</linearGradient>
<linearGradient id="paint89_linear_122_130" x1="938.5" y1="-30" x2="938.5" y2="268.818" gradientUnits="userSpaceOnUse">
<stop stop-color="#F7DD43"/>
<stop offset="1" stop-color="#F7DD43" stop-opacity="0"/>
</linearGradient>
<linearGradient id="paint90_linear_122_130" x1="938.5" y1="-30" x2="938.5" y2="268.818" gradientUnits="userSpaceOnUse">
<stop stop-color="#F7DD43"/>
<stop offset="1" stop-color="#F7DD43" stop-opacity="0"/>
</linearGradient>
<linearGradient id="paint91_linear_122_130" x1="938.5" y1="-30" x2="938.5" y2="268.818" gradientUnits="userSpaceOnUse">
<stop stop-color="#F7DD43"/>
<stop offset="1" stop-color="#F7DD43" stop-opacity="0"/>
</linearGradient>
<linearGradient id="paint92_linear_122_130" x1="938.5" y1="-30" x2="938.5" y2="268.818" gradientUnits="userSpaceOnUse">
<stop stop-color="#F7DD43"/>
<stop offset="1" stop-color="#F7DD43" stop-opacity="0"/>
</linearGradient>
<linearGradient id="paint93_linear_122_130" x1="938.5" y1="-30" x2="938.5" y2="268.818" gradientUnits="userSpaceOnUse">
<stop stop-color="#F7DD43"/>
<stop offset="1" stop-color="#F7DD43" stop-opacity="0"/>
</linearGradient>
<clipPath id="clip0_122_130">
<rect width="1024" height="753" fill="white"/>
</clipPath>
</defs>
</svg>
