<svg width="50" height="51" viewBox="0 0 50 51" fill="none" xmlns="http://www.w3.org/2000/svg">
<g clip-path="url(#clip0_188_329)">
<path d="M35.8695 3.29878C32.5828 1.70952 28.8955 0.818115 25 0.818115C21.1045 0.818115 17.4172 1.70952 14.1305 3.29878L11.9565 25.8181L14.1305 48.3375C17.4172 49.9267 21.1045 50.8181 25 50.8181C28.8955 50.8181 32.5828 49.9267 35.8695 48.3375L38.0435 25.8181L35.8695 3.29878Z" fill="#D80027"/>
<path d="M24.9998 17.1226L27.158 23.765H34.1431L28.4924 27.8709L30.6507 34.5138L24.9998 30.4082L19.3489 34.5138L21.5076 27.8709L15.8568 23.765H22.8415L24.9998 17.1226Z" fill="#FFDA44"/>
<path d="M14.1305 3.29968C5.76816 7.34324 0 15.9066 0 25.8181C0 35.7297 5.76816 44.293 14.1305 48.3366V3.29968Z" fill="#496E2D"/>
<path d="M35.8695 3.29968V48.3366C44.2318 44.293 50 35.7296 50 25.8181C50 15.9067 44.2318 7.34324 35.8695 3.29968Z" fill="#FFDA44"/>
</g>
<defs>
<clipPath id="clip0_188_329">
<rect width="50" height="50" fill="white" transform="translate(0 0.818115)"/>
</clipPath>
</defs>
</svg>
