<svg width="50" height="51" viewBox="0 0 50 51" fill="none" xmlns="http://www.w3.org/2000/svg">
<g clip-path="url(#clip0_188_126)">
<path d="M25 50.8182C38.8071 50.8182 50 39.6253 50 25.8182C50 12.0111 38.8071 0.818176 25 0.818176C11.1929 0.818176 0 12.0111 0 25.8182C0 39.6253 11.1929 50.8182 25 50.8182Z" fill="#F0F0F0"/>
<path d="M25 19.2964H49.1388C48.5119 16.9708 47.5592 14.7793 46.3307 12.7746H25V19.2964Z" fill="#338AF3"/>
<path d="M9.43777 45.3834H40.5621C42.8436 43.5662 44.8003 41.359 46.3305 38.8616H3.66931C5.19968 41.3589 7.15632 43.5662 9.43777 45.3834V45.3834Z" fill="#338AF3"/>
<path d="M25 0.818176V6.25294H40.5622C36.2917 2.85177 30.8837 0.818176 25 0.818176V0.818176Z" fill="#338AF3"/>
<path d="M25 19.2964H49.1388C48.5119 16.9708 47.5592 14.7793 46.3307 12.7746H25V19.2964Z" fill="#338AF3"/>
<path d="M0 25.8182C0 28.0747 0.300781 30.2605 0.86123 32.34H49.1389C49.6992 30.2605 50 28.0747 50 25.8182H0Z" fill="#338AF3"/>
<path d="M21.7391 15.4491L18.6858 16.8854L20.3117 19.8424L16.9963 19.2082L16.5761 22.5573L14.267 20.0941L11.9576 22.5573L11.5376 19.2082L8.22214 19.8422L9.84792 16.8853L6.7948 15.4491L9.84802 14.0131L8.22214 11.0561L11.5375 11.6902L11.9577 8.34113L14.267 10.8044L16.5762 8.34113L16.9963 11.6902L20.3118 11.0561L18.6859 14.0132L21.7391 15.4491Z" fill="#FFDA44"/>
</g>
<defs>
<clipPath id="clip0_188_126">
<rect width="50" height="50" fill="white" transform="translate(0 0.818176)"/>
</clipPath>
</defs>
</svg>
