<svg width="50" height="51" viewBox="0 0 50 51" fill="none" xmlns="http://www.w3.org/2000/svg">
<g clip-path="url(#clip0_188_119)">
<path d="M0 25.8182C0 36.5672 6.78438 45.7308 16.3042 49.2631L18.4782 25.8181L16.3042 2.37317C6.78438 5.90559 0 15.0691 0 25.8182Z" fill="#6DA544"/>
<path d="M50 25.8182C50 12.0111 38.807 0.818176 25 0.818176C21.942 0.818176 19.0126 1.36827 16.3042 2.37316V49.2632C19.0126 50.2682 21.942 50.8182 25 50.8182C38.807 50.8182 50 39.6252 50 25.8182Z" fill="#D80027"/>
<path d="M16.3044 34.5138C21.1068 34.5138 25 30.6206 25 25.8182C25 21.0157 21.1068 17.1226 16.3044 17.1226C11.5019 17.1226 7.60876 21.0157 7.60876 25.8182C7.60876 30.6206 11.5019 34.5138 16.3044 34.5138Z" fill="#FFDA44"/>
<path d="M11.4131 21.4703V26.9051C11.4131 29.6065 13.6029 31.7964 16.3044 31.7964C19.0059 31.7964 21.1957 29.6066 21.1957 26.9051V21.4703H11.4131Z" fill="#D80027"/>
<path d="M16.3044 28.5356C15.4054 28.5356 14.674 27.8041 14.674 26.9051V24.7313H17.9348V26.9052C17.9348 27.8041 17.2033 28.5356 16.3044 28.5356Z" fill="#F0F0F0"/>
</g>
<defs>
<clipPath id="clip0_188_119">
<rect width="50" height="50" fill="white" transform="translate(0 0.818176)"/>
</clipPath>
</defs>
</svg>
