<svg width="50" height="51" viewBox="0 0 50 51" fill="none" xmlns="http://www.w3.org/2000/svg">
<g clip-path="url(#clip0_186_211)">
<path d="M25 50.8182C38.8071 50.8182 50 39.6253 50 25.8182C50 12.0111 38.8071 0.818176 25 0.818176C11.1929 0.818176 0 12.0111 0 25.8182C0 39.6253 11.1929 50.8182 25 50.8182Z" fill="#6DA544"/>
<path d="M25 10.6008L45.6521 25.8182L25 41.0355L4.34784 25.8182L25 10.6008Z" fill="#FFDA44"/>
<path d="M25 34.5138C29.8024 34.5138 33.6956 30.6206 33.6956 25.8182C33.6956 21.0157 29.8024 17.1226 25 17.1226C20.1975 17.1226 16.3044 21.0157 16.3044 25.8182C16.3044 30.6206 20.1975 34.5138 25 34.5138Z" fill="#F0F0F0"/>
<path d="M20.6521 25.2747C19.14 25.2747 17.6808 25.5047 16.3071 25.9315C16.368 30.6815 20.2355 34.5139 25 34.5139C27.9461 34.5139 30.548 33.0474 32.121 30.8061C29.4299 27.4372 25.2892 25.2747 20.6521 25.2747V25.2747Z" fill="#0052B4"/>
<path d="M33.5345 27.4842C33.6392 26.9447 33.6957 26.3882 33.6957 25.8182C33.6957 21.0156 29.8025 17.1226 25.0001 17.1226C21.4167 17.1226 18.3405 19.2906 17.0093 22.3861C18.186 22.1423 19.4044 22.0139 20.6523 22.0139C25.7028 22.0138 30.2718 24.1132 33.5345 27.4842V27.4842Z" fill="#0052B4"/>
</g>
<defs>
<clipPath id="clip0_186_211">
<rect width="50" height="50" fill="white" transform="translate(0 0.818176)"/>
</clipPath>
</defs>
</svg>
