<svg width="50" height="51" viewBox="0 0 50 51" fill="none" xmlns="http://www.w3.org/2000/svg">
<g clip-path="url(#clip0_186_219)">
<path d="M25 50.8182C38.8071 50.8182 50 39.6253 50 25.8182C50 12.0111 38.8071 0.818176 25 0.818176C11.1929 0.818176 0 12.0111 0 25.8182C0 39.6253 11.1929 50.8182 25 50.8182Z" fill="#F0F0F0"/>
<path d="M25 0.818176C11.193 0.818176 0 12.0111 0 25.8182C0 28.8762 0.550098 31.8056 1.55498 34.5138H48.4451C49.45 31.8056 50 28.8762 50 25.8182C50 12.0111 38.807 0.818176 25 0.818176Z" fill="#0052B4"/>
<path d="M25 0.818176C14.2508 0.818176 5.08726 7.60255 1.55493 17.1226H48.4451C44.9126 7.60255 35.7491 0.818176 25 0.818176V0.818176Z" fill="#D80027"/>
<path d="M6.4646 14.9487V27.42C6.4646 34.5141 15.7323 36.6878 15.7323 36.6878C15.7323 36.6878 24.9999 34.5141 24.9999 27.42V14.9487H6.4646Z" fill="#D80027"/>
<path d="M10.2974 17.1225H21.167V12.7747L18.9931 13.8616L15.7322 10.6008L12.4713 13.8616L10.2974 12.7747V17.1225Z" fill="#FFDA44"/>
<path d="M22.826 29.1564L15.7608 22.0911L8.69556 29.1564L11.0013 31.4621L15.7608 26.7026L20.5203 31.4621L22.826 29.1564Z" fill="#FFDA44"/>
<path d="M22.826 22.5573H19.5295C19.7149 22.2374 19.8227 21.8669 19.8227 21.4706C19.8227 20.2698 18.8494 19.2967 17.6488 19.2967C16.8192 19.2967 16.0988 19.7613 15.7323 20.4444C15.3658 19.7614 14.6454 19.2967 13.8158 19.2967C12.6152 19.2967 11.6418 20.2698 11.6418 21.4706C11.6418 21.8669 11.7497 22.2375 11.935 22.5573H8.69556C8.69556 23.758 9.74136 24.7313 10.9418 24.7313H10.8695C10.8695 25.9319 11.8427 26.9052 13.0434 26.9052C13.0434 27.9683 13.8069 28.8515 14.8152 29.0405L13.1023 32.9079C13.9232 33.2416 14.8203 33.427 15.7609 33.427C16.7015 33.427 17.5986 33.2416 18.4195 32.9079L16.7066 29.0405C17.7149 28.8517 18.4784 27.9684 18.4784 26.9052C19.6791 26.9052 20.6523 25.9319 20.6523 24.7313H20.5799C21.7803 24.7313 22.826 23.7579 22.826 22.5573V22.5573Z" fill="#F0F0F0"/>
</g>
<defs>
<clipPath id="clip0_186_219">
<rect width="50" height="50" fill="white" transform="translate(0 0.818176)"/>
</clipPath>
</defs>
</svg>
